<svg width="47" height="32" xmlns="http://www.w3.org/2000/svg">
    <path d="M24.105 18.493c-.082.166-.165.277-.22.388-2.018 4.192-4.008 8.384-5.612 12.77a.562.562 0 01-.359.306c-.58.139-.912-.056-1.16-.61a1709.67 1709.67 0 00-6.523-14.714c-1.908-4.22-3.87-8.44-5.805-12.66a14.825 14.825 0 00-.608-1.138C3.21 1.78 2.298 1.253 1.11 1.197.86 1.17.612 1.17.39 1.142.087 1.114-.024.947.004.559.032.198.198.003.502.03 1.414.06 2.298.142 3.21.142 5.532.115 7.881.087 10.203.032c.221 0 .497-.029.525.25.028.249-.055.527-.11.776 0 .056-.139.056-.222.084-.497.055-.995.11-1.52.194a1.752 1.752 0 00-.497.167c-.387.166-.525.416-.387.805.36 1.055.718 2.137 1.16 3.164 2.24 4.997 4.506 9.967 6.772 14.936.774 1.721 1.603 3.415 2.405 5.108l.193.389c.249-.528.498-1.027.719-1.5 1.133-2.387 2.239-4.802 3.372-7.19.304-.61.304-1.193.027-1.804-1.188-2.61-2.349-5.22-3.51-7.8a107.08 107.08 0 00-1.907-4.026c-.166-.306-.331-.611-.525-.916-.608-.944-1.492-1.389-2.57-1.444-.221 0-.415-.028-.636-.056-.332-.027-.525-.277-.47-.638.028-.361.221-.5.58-.472 2.571.028 5.141.083 7.712.111.663 0 1.326-.055 1.99-.111.332-.028.47.111.497.472.028.389-.11.61-.414.638-.58.056-1.161.084-1.742.195-.718.11-.94.444-.718 1.138.221.694.497 1.36.774 1.999 1.05 2.415 2.128 4.803 3.178 7.19.028.083.083.167.138.305a.486.486 0 00.111-.138c1.3-2.693 2.543-5.442 3.566-8.273.138-.417.248-.833.303-1.25.083-.666-.22-.999-.884-1.055-.497-.055-1.023-.083-1.52-.138-.276-.028-.47-.278-.442-.639.027-.333.193-.472.525-.472 2.156.028 4.34.084 6.495.111.663 0 1.327-.055 1.99-.11.332-.029.442.083.47.443.028.445-.083.639-.415.667-.304.027-.608.055-.884.055-.968.028-1.741.472-2.322 1.25-.387.5-.718 1.054-1.022 1.61-1.631 2.97-3.096 5.996-4.506 9.078-.359.75-.276 1.388.056 2.082.995 2.165 1.962 4.33 2.93 6.524.552 1.277 1.133 2.526 1.685 3.803.056.111.11.222.166.36.083-.166.138-.249.166-.36 2.764-6.274 5.334-12.632 7.822-19.017a56.55 56.55 0 001.271-3.636c.304-.944-.11-1.527-1.105-1.638-.498-.056-.995-.084-1.493-.14-.304-.027-.497-.277-.47-.638 0-.333.194-.5.526-.472 2.128.028 4.256.084 6.384.112.663 0 1.327-.056 1.99-.112.36-.027.525.112.58.445.056.36-.138.638-.442.666-.359.055-.718.083-1.078.139a2.693 2.693 0 00-1.99 1.388c-.608 1.055-1.188 2.137-1.658 3.248a2332.549 2332.549 0 00-8.126 19.128c-.912 2.165-1.741 4.358-2.57 6.551-.139.333-.387.361-.664.361-.276-.028-.58.028-.718-.333-1.465-3.998-3.262-7.884-5.003-11.77-.221-.39-.415-.834-.636-1.333z" fill-opacity=".8"/>
    <path d="M31.098 9.998v.916c.249-.111.415-.222.608-.306.525-.25 1.05-.416 1.63-.333 1.051.167 1.797 1.027 1.88 2.11.138 2.249-1.492 3.776-3.731 3.47-.276-.027-.415.028-.415.306 0 .721 0 1.415.028 2.137 0 .278.166.444.442.472.138.028.277.028.387.056.083.027.138.11.194.166-.083.056-.166.14-.25.14h-1.823c-.194 0-.387.027-.608 0-.083 0-.139-.084-.194-.14.055-.055.11-.139.166-.166.636-.195.663-.195.663-.889v-6.19c0-.306-.055-.556-.331-.75-.056-.028-.083-.305-.028-.333.47-.194.884-.389 1.382-.666zm0 3.137c0 .472-.028.944 0 1.388.028.194.11.444.276.583.553.555 1.548.527 2.1 0 .747-.75.94-2.36.36-3.332-.497-.805-1.41-1.11-2.266-.694-.304.14-.47.361-.47.694v1.36zM18.273 13.329v.36c-.028 1.556-.028 3.11-.028 4.665 0 .527.11.638.636.75.083.027.166.138.249.221-.083.056-.194.14-.277.14h-2.266c-.083 0-.194-.084-.276-.14.082-.083.138-.194.248-.194.553-.11.664-.194.664-.75V15.19c0-.333-.11-.583-.387-.75-.25-.166-.221-.277.055-.416.415-.25.884-.472 1.382-.694zM17.637 11.885c-.47 0-.719-.25-.719-.721 0-.445.304-.75.746-.75.415 0 .719.305.719.75-.028.444-.276.721-.746.721z" fill-opacity=".8"/>
</svg>
