<svg width="80" height="80" xmlns="http://www.w3.org/2000/svg">
    <path d="M0 39.982C-.07 18.145 17.691 0 40.014 0c22.218 0 40.397 18.215 39.979 40.818-.418 21.801-18.388 39.39-40.397 39.18C17.691 79.79-.069 61.923 0 39.982zm76.51.07c.14-19.574-15.67-36.57-36.53-36.604C19.71 3.413 3.691 19.712 3.412 39.494c-.244 20.409 16.09 36.882 36.218 37.056 20.755.174 36.95-16.682 36.88-36.499z" fill-opacity=".8"/>
    <path d="M39.98 46.912c-.105.21-.21.349-.28.488-2.542 5.259-5.049 10.518-7.069 16.02a.707.707 0 01-.453.383c-.73.175-1.149-.07-1.462-.766a2140.336 2140.336 0 00-8.219-18.458c-2.403-5.294-4.875-10.588-7.313-15.881-.244-.488-.488-.976-.766-1.428-.766-1.324-1.916-1.985-3.413-2.055-.314-.035-.627-.035-.905-.07-.384-.035-.523-.244-.488-.731.035-.453.244-.697.627-.662 1.149.035 2.263.14 3.413.14 2.925-.035 5.885-.07 8.81-.14.279 0 .627-.035.662.314.035.313-.07.661-.14.975 0 .07-.174.07-.278.104-.627.07-1.254.14-1.915.244a2.212 2.212 0 00-.627.209c-.488.209-.662.522-.488 1.01.453 1.323.906 2.682 1.463 3.97 2.82 6.27 5.676 12.503 8.532 18.737.975 2.16 2.02 4.284 3.03 6.409l.244.487c.313-.662.626-1.288.905-1.88 1.428-2.996 2.82-6.026 4.249-9.02.383-.767.383-1.498.035-2.264-1.498-3.274-2.96-6.548-4.423-9.787a133.858 133.858 0 00-2.403-5.05 19.387 19.387 0 00-.662-1.15c-.766-1.183-1.88-1.74-3.239-1.81-.278 0-.522-.035-.8-.07-.418-.035-.662-.348-.593-.8.035-.454.279-.628.732-.593 3.239.035 6.477.105 9.716.14.836 0 1.671-.07 2.507-.14.418-.035.592.14.627.592.035.488-.14.766-.522.801-.732.07-1.463.105-2.194.244-.906.14-1.184.557-.906 1.428.279.87.627 1.706.975 2.507 1.324 3.03 2.682 6.026 4.005 9.02.035.105.105.21.174.384a.61.61 0 00.14-.174c1.636-3.379 3.204-6.827 4.492-10.379a8.574 8.574 0 00.383-1.567c.105-.836-.278-1.254-1.114-1.324-.627-.07-1.289-.104-1.916-.174-.348-.035-.592-.348-.557-.8.035-.419.244-.593.662-.593 2.716.035 5.467.105 8.184.14.836 0 1.671-.07 2.507-.14.418-.035.557.105.592.557.035.558-.104.801-.522.836-.383.035-.766.07-1.115.07-1.218.035-2.194.592-2.925 1.567-.487.627-.905 1.324-1.288 2.02-2.055 3.727-3.9 7.523-5.677 11.389-.453.94-.348 1.741.07 2.612a583.236 583.236 0 013.691 8.184c.697 1.602 1.428 3.17 2.124 4.771.07.14.14.279.21.453.104-.209.174-.313.208-.453 3.483-7.87 6.722-15.846 9.856-23.856a70.768 70.768 0 001.602-4.563c.383-1.184-.14-1.915-1.393-2.054-.627-.07-1.254-.105-1.88-.175-.384-.034-.628-.348-.593-.8 0-.418.244-.627.662-.593 2.681.035 5.363.105 8.045.14.835 0 1.671-.07 2.507-.14.453-.034.662.14.731.558.07.452-.174.8-.557.835-.453.07-.906.105-1.358.175-1.115.174-1.985.8-2.508 1.74-.766 1.324-1.497 2.683-2.09 4.076a2920.939 2920.939 0 00-10.238 23.996c-1.149 2.716-2.194 5.468-3.238 8.219-.174.418-.488.453-.836.453-.348-.035-.731.035-.905-.418-1.846-5.015-4.11-9.891-6.304-14.767-.278-.488-.522-1.045-.8-1.672zM37.82 11.528c.348.035.697.07 1.01.104.279.801.522.976 1.358 1.01.523.035 1.045.035 1.567.07 1.567.174 2.403 1.045 2.334 2.612-.07 1.184-.28 2.368-.488 3.552-.244 1.184-.557 2.334-.836 3.483-.07.244-.174.383-.418.418-.696.104-1.358.209-2.124.348a7.46 7.46 0 00.418-.975c.487-1.323 1.045-2.647 1.428-4.005.383-1.393-.279-2.125-1.742-2.194-.627-.035-1.288-.035-1.915-.07-.731-.07-.94-.348-.94-1.045 0-.139 0-.278.035-.418.07-.975.174-1.915.313-2.89z" fill-opacity=".8"/>
    <path d="M48.79 36.255v1.15c.313-.14.522-.28.766-.384.662-.313 1.323-.522 2.055-.418 1.323.21 2.263 1.289 2.368 2.647.174 2.821-1.88 4.737-4.702 4.354-.348-.035-.522.035-.522.383 0 .905 0 1.776.035 2.681 0 .349.209.558.557.593.174.034.348.034.488.07.104.034.174.138.243.208-.104.07-.209.174-.313.174h-2.298c-.244 0-.488.035-.767 0-.104 0-.174-.104-.243-.174.07-.07.139-.174.209-.209.8-.244.835-.244.835-1.114v-7.767c0-.383-.07-.696-.417-.94-.07-.035-.105-.383-.035-.418a15.73 15.73 0 001.74-.836zm0 3.936c0 .592-.035 1.184 0 1.741.035.244.14.557.348.731.697.697 1.95.662 2.647 0 .94-.94 1.184-2.96.453-4.179-.627-1.01-1.776-1.393-2.856-.87-.383.174-.592.452-.592.87v1.707zM32.631 40.434v.453c-.035 1.95-.035 3.9-.035 5.851 0 .662.14.801.801.94.105.035.21.175.314.28-.105.069-.244.173-.349.173h-2.855c-.105 0-.244-.104-.348-.174.104-.104.174-.244.313-.244.697-.139.836-.244.836-.94v-4.005c0-.418-.14-.732-.488-.94-.313-.21-.278-.349.07-.523.522-.313 1.114-.592 1.741-.87zM30.402 12.712c.418.209.732.418 1.045.522.14.07.383.07.522 0 .349-.139.627-.313 1.045-.522-.07.383-.104.697-.174 1.01-.07.313-.035.557.244.766.244.21.453.453.696.732-.278.034-.557.139-.836.139-.417 0-.696.174-.835.592-.105.279-.244.522-.418.836-.174-.348-.348-.662-.488-.975-.104-.314-.348-.418-.627-.418-.313-.035-.626-.105-.94-.14-.035-.034-.035-.07-.07-.104.244-.21.488-.453.732-.662.278-.209.313-.453.244-.766-.035-.313-.07-.627-.14-1.01zM38.412 9.96c.209-.522.522-.94.522-1.393-.034-.417-.417-.8-.696-1.253.383.035.696.07 1.01.104.313.07.557 0 .766-.278.174-.279.418-.488.697-.801.104.417.139.8.278 1.149.07.174.209.348.348.418.314.174.662.278 1.08.453-.383.243-.731.383-1.045.626a.774.774 0 00-.278.453c-.07.348-.07.732-.105 1.15-.313-.28-.592-.488-.836-.767-.174-.209-.383-.244-.627-.174-.383.14-.73.21-1.114.314zM46.63 15.115c.28-.244.558-.453.837-.731a.624.624 0 00.139-.488c-.035-.383-.105-.731-.174-1.15.313.175.627.28.87.454.314.209.557.209.871 0 .244-.175.557-.28.87-.453-.07.418-.139.766-.173 1.15 0 .173.07.382.174.521.243.28.522.488.835.802-.383.07-.696.139-.975.139-.383 0-.592.174-.696.522-.105.279-.279.558-.453.906-.174-.383-.348-.662-.488-.975-.104-.28-.278-.383-.557-.418-.313-.035-.661-.105-.975-.14-.07-.07-.104-.104-.104-.139zM31.83 38.623c-.592 0-.905-.313-.905-.905 0-.557.383-.94.94-.94.522 0 .905.383.905.94-.034.557-.348.905-.94.905z" fill-opacity=".8"/>
</svg>
