<?xml version="1.0" encoding="UTF-8"?><!DOCTYPE svg PUBLIC "-//W3C//DTD SVG 1.1//EN" "http://www.w3.org/Graphics/SVG/1.1/DTD/svg11.dtd"><svg xmlns="http://www.w3.org/2000/svg" xmlns:xlink="http://www.w3.org/1999/xlink"><symbol id="article-fb-like">
    <path fill-rule="evenodd" clip-rule="evenodd" d="M3 0h61c1.7 0 3 1.3 3 3v14c0 1.7-1.3 3-3 3H3c-1.7 0-3-1.3-3-3V3c0-1.7 1.3-3 3-3z" fill="#4065B4"/>
    <path fill-rule="evenodd" clip-rule="evenodd" d="M5 9v6.4h3V9H5zM9 14.8l.1.1c.1 0 .2.1.3.2.5.4 1.1.4 1.1.4h5.2c.5 0 .8-.4.8-.9 0-.1 0-.3-.1-.4l-.2-.4.4-.1c.4-.1.8-.5.8-.9 0-.2-.1-.4-.2-.6l-.2-.4.4-.1c.4-.1.6-.5.6-.9 0-.3-.2-.6-.5-.8l-.4-.2.4-.3c.2-.2.4-.4.4-.7 0-.2-.1-.5-.3-.6-.2-.2-.4-.3-.7-.3h-4l.3-2.1v-.4c0-1.1-.7-2.3-1.5-2.3-.1 0-.3 0-.4.1l.1 1.9v.5c0 .2-.1.3-.2.4L9.5 9.4l-.5.5v4.9z" fill="#fff"/>
    <path d="M25.762 6.303h1.504v5.903h3.564V13.5h-5.068V6.303zm7.431 1.24h-1.41V6.259h1.41v1.284zm-1.41.635h1.41V13.5h-1.41V8.178zm2.748-1.85h1.367v3.876l1.734-2.002h1.724l-1.86 2.036 1.933 3.262h-1.68l-1.274-2.275-.577.6V13.5h-1.367V6.327zm7.68 2.856c-.321 0-.572.1-.751.302-.176.202-.287.476-.332.82h2.163c-.023-.367-.135-.646-.337-.834a1.025 1.025 0 00-.742-.288zm0-1.148c.444 0 .842.083 1.197.25.355.165.648.427.88.785.207.316.343.682.404 1.099a7.1 7.1 0 01.044 1.055h-3.642c.02.534.187.908.503 1.123.192.133.423.2.693.2.287 0 .52-.082.698-.244a1.16 1.16 0 00.26-.367h1.42c-.036.316-.2.637-.493.962-.456.518-1.094.777-1.914.777a2.699 2.699 0 01-1.792-.655c-.518-.436-.777-1.145-.777-2.128 0-.922.233-1.628.699-2.12.468-.491 1.076-.737 1.82-.737zM49.693 8.617V7.67c.44-.02.747-.049.923-.088.28-.062.508-.186.684-.371.12-.127.211-.296.273-.508.036-.127.054-.221.054-.283h1.157v7.08h-1.426V8.617h-1.665zm6.607 1.411c0 .814.067 1.438.2 1.87.133.43.407.645.82.645.414 0 .684-.215.81-.645.131-.432.196-1.056.196-1.87 0-.853-.065-1.484-.195-1.894-.127-.41-.397-.615-.81-.615-.414 0-.688.205-.821.615-.133.41-.2 1.041-.2 1.894zm1.02-3.657c.902 0 1.533.317 1.895.952.364.635.547 1.537.547 2.705 0 1.169-.183 2.069-.547 2.7-.362.632-.993.948-1.895.948-.901 0-1.535-.316-1.9-.947-.36-.632-.541-1.532-.541-2.7 0-1.17.18-2.071.542-2.706.364-.635.998-.952 1.9-.952z" fill="#fff"/>
</symbol><symbol id="article-fb-share">
    <path fill-rule="evenodd" clip-rule="evenodd" d="M3 0h35c1.7 0 3 1.3 3 3v14c0 1.7-1.3 3-3 3H3c-1.7 0-3-1.3-3-3V3c0-1.7 1.3-3 3-3z" fill="#4065B4"/>
    <path d="M7.85 11.278c.046.33.136.575.27.738.243.296.662.444 1.254.444.355 0 .643-.04.864-.117.42-.15.63-.428.63-.835a.616.616 0 00-.312-.552c-.209-.127-.536-.24-.982-.337l-.761-.17c-.75-.17-1.267-.354-1.553-.553-.485-.332-.728-.85-.728-1.557 0-.645.235-1.18.703-1.607.47-.426 1.158-.64 2.066-.64.758 0 1.404.203 1.938.606.537.4.819.983.845 1.748h-1.445c-.026-.433-.215-.74-.567-.923-.234-.12-.525-.18-.874-.18-.387 0-.696.078-.927.234a.746.746 0 00-.347.654c0 .258.114.45.342.577.146.084.459.184.937.297l1.24.298c.544.13.954.305 1.23.523.43.338.645.828.645 1.47 0 .657-.252 1.204-.756 1.64-.502.433-1.211.65-2.13.65-.937 0-1.674-.214-2.211-.64-.537-.43-.806-1.019-.806-1.768h1.436zm8.404-3.237c.329 0 .627.057.893.17.27.115.492.289.665.523.146.199.235.404.268.616.033.208.049.55.049 1.025V13.5h-1.421v-3.237c0-.287-.049-.518-.146-.694-.127-.247-.368-.37-.723-.37-.368 0-.648.123-.84.37-.189.244-.283.594-.283 1.05V13.5h-1.387V6.327h1.387v2.544c.202-.31.434-.524.698-.644.267-.124.547-.186.84-.186zm6.113 2.871c-.088.055-.177.101-.268.137-.088.032-.21.063-.367.093l-.312.058c-.293.052-.503.116-.63.19-.215.128-.322.324-.322.591 0 .238.065.41.195.518a.762.762 0 00.483.156c.3 0 .575-.088.826-.263.254-.176.385-.497.395-.962v-.518zm-.845-.65c.258-.032.442-.072.552-.121.199-.085.298-.217.298-.396 0-.218-.076-.368-.23-.45-.15-.084-.37-.126-.663-.126-.33 0-.562.081-.699.244-.097.12-.163.283-.195.488h-1.343c.03-.465.16-.848.39-1.147.369-.469 1-.703 1.895-.703.583 0 1.1.115 1.553.346.453.232.679.668.679 1.309v2.442c0 .169.003.374.01.615.01.182.037.306.083.37a.498.498 0 00.205.162v.205h-1.514a1.552 1.552 0 01-.088-.303 3.656 3.656 0 01-.039-.322 2.86 2.86 0 01-.664.532c-.3.173-.638.259-1.016.259-.481 0-.88-.137-1.196-.41-.313-.277-.469-.668-.469-1.172 0-.654.253-1.128.757-1.42.277-.16.684-.274 1.22-.343l.475-.058zm6.368-2.211c.026 0 .047.001.063.005.02 0 .06.001.122.005v1.425a3.766 3.766 0 00-.4-.024c-.56 0-.936.182-1.128.547-.108.205-.161.52-.161.947V13.5h-1.402V8.178h1.328v.927c.215-.354.402-.597.562-.727.26-.218.599-.327 1.016-.327zm3.105 1.133c-.322 0-.573.1-.752.302-.176.202-.286.476-.332.82h2.163c-.023-.367-.135-.646-.337-.834a1.025 1.025 0 00-.742-.288zm0-1.148c.443 0 .842.083 1.196.25.355.165.648.427.88.785.208.316.343.682.405 1.099a7.1 7.1 0 01.044 1.055h-3.643c.02.534.187.908.503 1.123.192.133.423.2.693.2.287 0 .52-.082.698-.244a1.16 1.16 0 00.26-.367h1.42c-.036.316-.2.637-.493.962-.456.518-1.094.777-1.914.777a2.699 2.699 0 01-1.792-.655c-.518-.436-.776-1.145-.776-2.128 0-.922.232-1.628.698-2.12.469-.491 1.076-.737 1.821-.737z" fill="#fff"/>
</symbol><symbol id="article-gplus">
    <path fill-rule="evenodd" clip-rule="evenodd" d="M3 0h21c1.7 0 3 1.3 3 3v14c0 1.7-1.3 3-3 3H3c-1.7 0-3-1.3-3-3V3c0-1.7 1.3-3 3-3z" fill="#EB5E4C"/>
    <path fill-rule="evenodd" clip-rule="evenodd" d="M10.4 15.6c-2.9 0-5.3-2.4-5.3-5.3S7.5 5 10.4 5c1.5 0 2.6.5 3.6 1.4l-1.5 1.4c-.4-.4-1.1-.8-2.1-.8-1.8 0-3.3 1.5-3.3 3.3 0 1.9 1.5 3.3 3.3 3.3 2.1 0 2.9-1.5 3-2.3h-3V9.6h5c.1.2.1.6.1.9-.1 3-2.1 5.1-5.1 5.1zM21.9 11.1h-1.5v1.5h-1.5v-1.5h-1.6V9.6h1.6V8.1h1.5v1.5h1.5v1.5z" fill="#fff"/>
</symbol><symbol id="article-in">
    <path fill-rule="evenodd" clip-rule="evenodd" d="M3 0h14c1.7 0 3 1.3 3 3v14c0 1.7-1.3 3-3 3H3c-1.7 0-3-1.3-3-3V3c0-1.7 1.3-3 3-3z" fill="#238CC8"/>
    <path fill-rule="evenodd" clip-rule="evenodd" d="M13.2 7.4c-1.4 0-2.3.7-2.7 1.2l-.2-.8H8.2V16h2.3v-5c0-.3 0-.5.1-.6.2-.4.8-.9 1.5-.9.9 0 1.5.7 1.5 1.8V16h2.3v-5.1c.1-2.5-1.1-3.5-2.7-3.5zm-8.9 8.4h2.3V7.6H4.3v8.2zM5.5 4C4.6 4 4 4.5 4 5.3s.6 1.3 1.5 1.3S7 6.1 7 5.3C6.8 4.5 6.3 4 5.5 4z" fill="#fff"/>
</symbol><symbol id="article-tweeter">
    <path fill-rule="evenodd" clip-rule="evenodd" d="M3 0h53c1.7 0 3 1.3 3 3v14c0 1.7-1.3 3-3 3H3c-1.7 0-3-1.3-3-3V3c0-1.7 1.3-3 3-3z" fill="#55ACEE"/>
    <path d="M27.991 6.303v1.274h-2.153V13.5h-1.514V7.577h-2.163V6.303h5.83zm3.282 1.875h1.41l.811 3.833.83-3.833h1.45L34.231 13.5h-1.43l-.835-3.877-.845 3.877h-1.445l-1.494-5.322h1.494l.83 3.818.767-3.818zm7.372 1.006c-.322 0-.572.1-.751.302-.176.202-.287.476-.332.82h2.163c-.023-.367-.136-.646-.337-.834a1.025 1.025 0 00-.742-.288zm0-1.148c.443 0 .842.083 1.197.25.355.165.648.427.879.785.208.316.343.682.405 1.099a7.1 7.1 0 01.044 1.055h-3.643c.02.534.188.908.503 1.123.192.133.423.2.694.2.286 0 .519-.082.698-.244a1.16 1.16 0 00.259-.367h1.42c-.035.316-.2.637-.493.962-.455.518-1.093.777-1.914.777a2.7 2.7 0 01-1.792-.655c-.517-.436-.776-1.145-.776-2.128 0-.922.233-1.628.698-2.12.469-.491 1.076-.737 1.822-.737zm5.567 1.148c-.322 0-.573.1-.752.302-.176.202-.287.476-.332.82h2.163c-.023-.367-.135-.646-.337-.834a1.025 1.025 0 00-.742-.288zm0-1.148c.443 0 .841.083 1.196.25.355.165.648.427.88.785.207.316.343.682.404 1.099a7.1 7.1 0 01.044 1.055h-3.642c.02.534.187.908.503 1.123.192.133.423.2.693.2.287 0 .52-.082.698-.244a1.16 1.16 0 00.26-.367h1.42c-.036.316-.2.637-.493.962-.456.518-1.094.777-1.914.777a2.699 2.699 0 01-1.792-.655c-.518-.436-.777-1.145-.777-2.128 0-.922.233-1.628.699-2.12.468-.491 1.076-.737 1.82-.737zm2.92 1.182v-.991h.742V6.742h1.377v1.485h.864v.99h-.864v2.813c0 .218.028.355.083.41.055.053.225.079.508.079h.132l.141-.01v1.04l-.659.024c-.658.023-1.107-.09-1.348-.342-.156-.16-.234-.405-.234-.737V9.218h-.742z" fill="#fff"/>
    <path fill-rule="evenodd" clip-rule="evenodd" d="M16.6 7.5v.4c0 3.5-2.6 7.6-7.6 7.6-1.5 0-2.9-.4-4-1.2h.6c1.2 0 2.4-.4 3.3-1.1-1.1 0-2.1-.8-2.5-1.8.2 0 .4.1.5.1.3 0 .4 0 .7-.1-1.2-.3-2.1-1.3-2.1-2.6.4.2.8.4 1.2.4C6 8.8 5.6 7.9 5.6 7c0-.5.1-1 .4-1.3 1.3 1.6 3.2 2.6 5.4 2.8-.1-.2-.1-.4-.1-.6 0-1.5 1.2-2.6 2.6-2.6.8 0 1.5.4 1.9.9.6-.1 1.1-.4 1.7-.6-.2.6-.6 1.1-1.1 1.5.5-.1 1.1-.2 1.5-.4-.3 0-.8.5-1.3.8z" fill="#fff"/>
</symbol></svg>