<?xml version="1.0" encoding="UTF-8"?><!DOCTYPE svg PUBLIC "-//W3C//DTD SVG 1.1//EN" "http://www.w3.org/Graphics/SVG/1.1/DTD/svg11.dtd"><svg xmlns="http://www.w3.org/2000/svg" xmlns:xlink="http://www.w3.org/1999/xlink"><symbol id="arrow">
    <path fill-rule="evenodd" clip-rule="evenodd" d="M9.925.246l3.819 3.66a.815.815 0 010 1.187L9.925 8.754a.902.902 0 01-1.237 0 .815.815 0 010-1.186l2.325-2.23H.839a.839.839 0 110-1.677h10.174L8.688 1.432a.815.815 0 010-1.186.902.902 0 011.237 0z"/>
</symbol><symbol id="checkmark">
    <path d="M15.623 1.071l-1.45-.939c-.403-.235-.966-.156-1.208.235L5.88 10.54 2.657 7.41A.826.826 0 001.45 7.33L.242 8.505a.834.834 0 000 1.174l4.992 4.851c.242.235.725.47 1.128.47.402 0 .805-.235 1.047-.626l8.455-12.13c.242-.39.161-.938-.242-1.173z"/>
</symbol><symbol id="chevron">
    <path fill-rule="evenodd" clip-rule="evenodd" d="M18.18 11.473a1 1 0 101.414-1.415L10.149.614 8.734 2.027l.002.002-8.029 8.03a1 1 0 101.414 1.414l8.03-8.03 8.029 8.03z"/>
</symbol><symbol id="design-patents">
    <path fill-rule="evenodd" clip-rule="evenodd" d="M56.81 0v56.163H0L56.81 0zM7.302 53.163H53.81V49.77c-.238.16-.525.254-.834.254h-1.49a1.5 1.5 0 110-3h1.49c.309 0 .596.093.834.253v-1.73c-.238.16-.525.253-.834.253h-2.732a1.5 1.5 0 010-3h2.732c.309 0 .596.094.834.253v-1.778c-.238.16-.525.253-.834.253h-1.49a1.5 1.5 0 010-3h1.49c.309 0 .596.093.834.253v-1.73c-.238.16-.525.254-.834.254h-2.732a1.5 1.5 0 110-3h2.732c.309 0 .596.093.834.253V32.78c-.238.16-.525.254-.834.254h-1.49a1.5 1.5 0 110-3h1.49c.309 0 .596.093.834.253v-1.73c-.238.16-.525.254-.834.254h-2.732a1.5 1.5 0 010-3h2.732c.309 0 .596.093.834.253v-1.779c-.238.16-.525.253-.834.253h-1.49a1.5 1.5 0 110-3h1.49c.309 0 .596.094.834.253v-1.73c-.238.16-.525.254-.834.254h-2.732a1.5 1.5 0 110-3h2.732c.309 0 .596.093.834.253V15.79c-.238.16-.525.253-.834.253h-1.49a1.5 1.5 0 010-3h1.49c.309 0 .596.093.834.253V7.184L7.302 53.163zm40.07-30.721v24.44H22.652l24.722-24.44zm-17.42 21.44h14.42V29.626l-14.42 14.256zM42.16 1.396a1.5 1.5 0 01.372 1.529l-3.17 9.79a1.491 1.491 0 01-.282.527l-.014.016c-.03.035-.06.068-.093.1L14.756 37.204l.032.03-4.375 4.26a3.314 3.314 0 01-4.638-.005l-4.057-4.011c-1.408-1.322-1.244-3.4-.104-4.614l.023-.025 3.292-3.205.004-.004L30.248 4.701l.021-.02.019-.018a1.559 1.559 0 01.287-.213 1.507 1.507 0 01.273-.122l.025-.008 9.753-3.28a1.5 1.5 0 011.533.356zm-9.306 9.723c.711.67 1.513 1.246 2.384 1.706L12.615 35.102l-4.49-4.405L30.767 8.4c.433.805.966 1.547 1.583 2.21a1.5 1.5 0 00-1.838.213l-3.675 3.634a1.5 1.5 0 102.109 2.134l3.675-3.634a1.5 1.5 0 00.232-1.84zm4.124-.777l1.783-5.509-5.502 1.85a7.81 7.81 0 003.72 3.659zm-31 22.458l4.498 4.446-2.158 2.101-.008.008a.297.297 0 01-.212.083.297.297 0 01-.213-.083L3.793 35.31l-.019-.017a.186.186 0 01-.064-.15.34.34 0 01.077-.21l2.19-2.133z"/>
</symbol><symbol id="footer__napp">
    <path d="M23.895 14.907h2.836V27.95h-2.723l-6.41-8.385v8.385h-2.855V14.907h2.723l6.429 8.422v-8.422zM39.42 27.95l-1.04-2.534h-6.126l-1.04 2.534h-3.082l5.748-13.043h3.083l5.654 13.043H39.42zm-6.182-4.9h4.178l-2.08-5.069-2.098 5.068zM49.609 14.907c1.69 0 2.994.397 3.914 1.192.92.783 1.38 1.895 1.38 3.336 0 1.515-.466 2.695-1.399 3.54-.92.832-2.218 1.248-3.895 1.248H46.98v3.727h-2.988V14.907h5.616zm-.151 6.857c.844 0 1.487-.186 1.928-.56.454-.384.681-.943.681-1.676 0-.72-.227-1.261-.68-1.621-.442-.373-1.085-.56-1.93-.56h-2.476v4.417h2.477zM62.424 14.907c1.69 0 2.994.397 3.914 1.192.92.783 1.38 1.895 1.38 3.336 0 1.515-.466 2.695-1.398 3.54-.92.832-2.22 1.248-3.896 1.248h-2.628v3.727h-2.988V14.907h5.616zm-.151 6.857c.845 0 1.487-.186 1.929-.56.454-.384.68-.943.68-1.676 0-.72-.227-1.261-.68-1.621-.441-.373-1.084-.56-1.929-.56h-2.477v4.417h2.477z"/>
    <path fill-rule="evenodd" clip-rule="evenodd" d="M66.891 34.186c6.845-3.679 10.2-8.29 10.2-12.686 0-4.396-3.355-9.007-10.2-12.686C60.157 5.194 50.655 2.867 40 2.867c-10.655 0-20.157 2.327-26.891 5.947-6.845 3.679-10.2 8.29-10.2 12.686 0 4.396 3.355 9.007 10.2 12.686 6.734 3.62 16.236 5.947 26.891 5.947 10.655 0 20.157-2.327 26.891-5.947zM40 43c22.091 0 40-9.626 40-21.5S62.091 0 40 0 0 9.626 0 21.5 17.909 43 40 43z"/>
</symbol><symbol id="gears">
    <path fill-rule="evenodd" clip-rule="evenodd" d="M17.412.221l6.925 2.13-1.082 4.688c.254.183.5.379.734.592l4.429-1.948 3.694 6.332-4.24 2.765c.024.28.038.553.045.817l4.53 1.811-2.128 6.914-4.748-1.055a5.93 5.93 0 01-.539.712l1.969 4.472-6.35 3.439-2.745-4.026c-.287.026-.567.04-.838.048l-1.812 4.529-6.879-2.117.9-4.678a8.173 8.173 0 01-.766-.616l-4.467 1.966L.59 20.623l4.205-2.742a13.624 13.624 0 01-.046-.816L.221 15.254l2.114-6.87 4.815.892c.146-.204.307-.405.483-.598L5.667 4.21l6.35-3.439 2.745 4.026c.286-.026.567-.04.838-.048L17.412.22zm1.7 3.558L17.567 7.64h-.982c-.86 0-1.555.005-2.23.14l-.941.188-2.319-3.4-1.697.92 1.77 4.021-.922.69c-.459.345-.828.825-1.082 1.333l-.488.976-4.329-.802-.568 1.847 3.862 1.545v.981c0 .861.005 1.556.14 2.23l.192.963-3.558 2.32.906 1.674 4.022-1.77.69.92c.338.45.822.838 1.598 1.304l.87.521-.784 4.077 1.839.565 1.545-3.861h.981c.861 0 1.556-.005 2.23-.14l.942-.188 2.318 3.4 1.698-.92-1.77-4.021.921-.69c.442-.332.788-.78 1.033-1.39l.457-1.145 4.423.983.555-1.802-3.863-1.545v-.982c0-.86-.004-1.555-.139-2.23l-.193-.962 3.523-2.297-1-1.714-4.06 1.787-.69-.92c-.338-.45-.822-.838-1.598-1.304l-.904-.542.94-4.07-1.793-.551zm-5.447 7.72c1.245-.685 2.702-.75 4.157-.334 1.461.418 2.659 1.251 3.345 2.498.684 1.244.749 2.701.333 4.156-.418 1.461-1.251 2.659-2.498 3.344-1.244.685-2.701.75-4.156.334-1.461-.418-2.66-1.251-3.345-2.498-.685-1.244-.75-2.701-.333-4.156.417-1.461 1.25-2.659 2.497-3.344zm1.398 2.54c-.43.237-.854.716-1.107 1.6-.255.893-.152 1.53.086 1.963.236.43.715.853 1.6 1.106.893.255 1.531.152 1.963-.086.43-.236.854-.715 1.107-1.6.255-.892.151-1.53-.086-1.962-.236-.43-.715-.853-1.6-1.106-.893-.255-1.531-.152-1.963.086zm26.812 7.986l8.245 2.424-1.238 6.192c.412.28.846.605 1.254.977l5.833-2.475 4.104 7.724-5.29 3.35c.082.508.114 1.009.127 1.495l5.865 2.132-2.435 8.278-6.193-1.238c-.28.412-.605.846-.977 1.254l2.468 5.815-7.54 4.135-3.36-5.305c-.52.084-1.03.116-1.524.128l-2.307 5.854-8.245-2.424 1.239-6.193a11.12 11.12 0 01-1.254-.976L24.83 55.64l-4.136-7.54L26 44.74a11.19 11.19 0 01-.128-1.523l-5.855-2.306 2.425-8.244 6.194 1.239c.279-.412.604-.846.976-1.254l-2.468-5.816 7.54-4.134 3.36 5.304a11.186 11.186 0 011.525-.128l2.306-5.853zm1.726 3.53l-2.055 5.216h-.987c-1.216 0-1.982.012-2.727.26l-1.076.36-3.064-4.837-2.854 1.564 2.264 5.336-.858.687c-.62.496-1.18 1.303-1.674 2.128l-.526.876-5.569-1.114-.927 3.154 5.217 2.055v.987c0 1.216.012 1.981.26 2.726l.36 1.077-4.838 3.063 1.564 2.853 5.337-2.264.687.858c.496.62 1.304 1.18 2.129 1.674l.876.526-1.114 5.567 3.155.928 2.055-5.216h.988c1.215 0 1.981-.013 2.726-.261l1.077-.359 3.064 4.837 2.853-1.564-2.264-5.336.858-.687c.62-.496 1.18-1.304 1.675-2.128l.525-.876 5.569 1.113.918-3.12-5.207-1.892V42.73c0-1.215-.013-1.981-.261-2.726l-.36-1.076 4.854-3.073-1.596-3.004-5.321 2.257-.687-.858c-.496-.62-1.304-1.18-2.128-1.674l-.877-.526 1.114-5.567-3.155-.928zM32.462 39.973c1.23-4.445 5.896-7.091 10.38-5.664 4.424 1.407 6.87 6.04 5.652 10.32-1.218 4.447-5.875 7.102-10.358 5.694-4.435-1.227-7.08-5.875-5.674-10.35zm9.501-2.9c-2.882-.918-5.917.78-6.711 3.692l-.008.03-.01.028c-.916 2.881.78 5.915 3.694 6.71l.03.008.029.01c2.882.916 5.917-.781 6.711-3.694l.002-.008.003-.009c.788-2.757-.79-5.83-3.74-6.768z"/>
</symbol><symbol id="info">
    <path d="M8 6.474v4.47a2.176 2.176 0 01-.328.045 4.95 4.95 0 01-.687 0 2.449 2.449 0 01-.329-.046V7.006c0-.415-.153-.623-.461-.623h-.133A2.161 2.161 0 016 5.863c0-.166.02-.34.062-.52.157-.016.3-.027.43-.035.137-.015.253-.022.349-.022h.174c.308 0 .547.105.718.317.178.21.267.501.267.87zM6.451 3.147C6.61 3.05 6.834 3 7.128 3c.171 0 .308.015.41.045.11.03.188.068.236.113.048.038.079.114.093.227.013.113.02.23.02.35-.02.385-.065.596-.133.634-.062.038-.274.076-.636.113-.383-.015-.609-.071-.677-.17-.062-.097-.092-.29-.092-.577 0-.218.034-.414.102-.588z"/>
    <rect x=".5" y=".5" width="13" height="13" rx="6.5"/>
</symbol><symbol id="international-ip">
    <path fill-rule="evenodd" clip-rule="evenodd" d="M47.432 7.75a1.5 1.5 0 01.68 2.01l-1.344-.665c1.345.664 1.344.666 1.344.666l-.002.003-.002.005-.006.012-.017.033a6.997 6.997 0 01-.243.417c-.165.261-.409.617-.747 1.034-.676.834-1.728 1.915-3.27 2.983-3.102 2.149-8.098 4.188-15.825 4.188a1.5 1.5 0 110-3c7.17 0 11.558-1.882 14.116-3.654 1.287-.891 2.134-1.77 2.649-2.406.258-.318.432-.575.538-.743a4.012 4.012 0 00.125-.212l-.003.007m2.007-.678a1.5 1.5 0 00-2.004.671l2.004-.67z"/>
    <path fill-rule="evenodd" clip-rule="evenodd" d="M9.836 7.75a1.5 1.5 0 00-.68 2.01l1.344-.665a92.99 92.99 0 00-1.344.666l.002.003.002.005.006.012.017.033.054.1c.045.08.107.187.19.317.164.261.408.617.746 1.034.676.834 1.728 1.915 3.27 2.983 3.102 2.149 8.098 4.188 15.825 4.188a1.5 1.5 0 100-3c-7.17 0-11.558-1.882-14.116-3.654-1.287-.891-2.134-1.77-2.649-2.406a7.783 7.783 0 01-.538-.743 4.012 4.012 0 01-.125-.212l.004.007M9.835 7.75a1.5 1.5 0 012.004.671l-2.004-.67zm2.004.671c0-.002 0-.001 0 0z"/>
    <path fill-rule="evenodd" clip-rule="evenodd" d="M0 28.5C0 12.775 12.775 0 28.5 0 44.206 0 56.964 12.792 57 28.483v.081C56.965 44.249 44.22 56.982 28.532 57h-.065C12.76 56.982 0 44.265 0 28.5zm22.481 24.786C11.777 50.7 3.701 41.364 3.043 30h9.525c.324 10.137 3.91 16.788 7.58 20.949a26.52 26.52 0 002.333 2.337zm12.042-.004C45.223 50.685 53.297 41.328 53.956 30h-9.524c-.324 10.137-3.91 16.788-7.58 20.949a26.542 26.542 0 01-2.329 2.334zM53.953 27C53.263 15.482 44.906 5.98 33.93 3.584a26.496 26.496 0 012.483 2.467c3.67 4.161 7.255 10.812 7.579 20.949h9.962zM22.478 3.718C11.777 6.315 3.703 15.673 3.044 27h9.524c.324-10.137 3.91-16.788 7.58-20.949a26.518 26.518 0 012.329-2.333zM27 30v22.97a22.6 22.6 0 01-4.603-4.005C19.185 45.322 15.89 39.362 15.57 30H27zm3 22.97a22.607 22.607 0 004.603-4.005C37.815 45.322 41.11 39.362 41.43 30H30v22.97zM22.397 8.034A22.605 22.605 0 0127 4.031V27H15.57c.32-9.363 3.615-15.322 6.827-18.965zm11.766 0A22.82 22.82 0 0030 4.325V27h10.99c-.32-9.363-3.616-15.322-6.827-18.965z"/>
    <path fill-rule="evenodd" clip-rule="evenodd" d="M11.072 48.58a1.5 1.5 0 01-2.685-1.34l1.345.665a94.424 94.424 0 01-1.344-.666l.001-.003.003-.005.006-.012.017-.033a6.98 6.98 0 01.243-.417c.165-.261.409-.617.747-1.034.676-.834 1.728-1.915 3.27-2.983 3.102-2.149 8.098-4.188 15.825-4.188a1.5 1.5 0 110 3c-7.17 0-11.558 1.882-14.116 3.654-1.287.891-2.134 1.77-2.649 2.406a7.783 7.783 0 00-.538.743 3.989 3.989 0 00-.125.212m0 0z"/>
    <path fill-rule="evenodd" clip-rule="evenodd" d="M45.428 48.58a1.5 1.5 0 002.685-1.34l-1.345.665a95.292 95.292 0 001.344-.666l-.002-.003-.002-.005-.006-.012-.017-.033a5.242 5.242 0 00-.243-.417 10.754 10.754 0 00-.747-1.034c-.676-.834-1.728-1.915-3.27-2.983-3.102-2.149-8.098-4.188-15.825-4.188a1.5 1.5 0 100 3c7.17 0 11.558 1.882 14.116 3.654 1.287.891 2.134 1.77 2.649 2.406.258.318.432.575.538.743a3.921 3.921 0 01.125.212m0 0z"/>
</symbol><symbol id="main-header__anchor">
    <path d="M10 9v10h2V9h-2z"/>
    <rect x="1" y="1" width="20" height="34" rx="10" stroke-width="2"/>
</symbol><symbol id="plant-patents">
    <path fill-rule="evenodd" clip-rule="evenodd" d="M41.016 1.044c0-.001 0-.002-1.429.456l1.429-.458a1.5 1.5 0 00-1.623-1.03c-9.705 1.27-15.44 4.886-18.7 7.97a1.5 1.5 0 002.062 2.18c2.662-2.519 7.453-5.666 15.737-6.988.168.676.374 1.601.56 2.705.406 2.415.704 5.63.316 8.913-.388 3.283-1.452 6.547-3.694 9.174-2.22 2.603-5.716 4.718-11.239 5.518a1.5 1.5 0 10.43 2.97c6.13-.889 10.327-3.301 13.091-6.54 2.744-3.216 3.958-7.107 4.391-10.77.433-3.661.097-7.18-.337-9.763a38.957 38.957 0 00-.655-3.123 27.995 27.995 0 00-.31-1.121l-.02-.066-.006-.02-.002-.005v-.002zM4.056 3.602a1.5 1.5 0 00-1.685 1.054l-.014.044-.024.075-.047.152c-.06.197-.144.481-.241.84-.194.716-.44 1.733-.654 2.955-.424 2.43-.73 5.737-.199 9.132.534 3.408 1.925 6.974 4.953 9.788 3.027 2.811 7.531 4.724 14.013 5.129a1.496 1.496 0 001.374-.659l.009-.012.008-.014.038-.057.127-.202c.107-.173.256-.421.431-.736.351-.627.812-1.524 1.263-2.616a22.82 22.82 0 001.269-4.09c.028-.06.053-.125.073-.191 1.183-3.867 3.419-6.56 5.374-8.296a18.505 18.505 0 012.527-1.889 13.265 13.265 0 01.928-.524l.02-.01.041-.02.003-.001-.626-1.364c.626 1.364.626 1.364.627 1.363h.002v-.001a1.5 1.5 0 00-1.255-2.725l.626 1.363c-.626-1.363-.626-1.363-.627-1.362h-.001l-.003.002-.009.004-.024.011-.08.038c-.065.033-.156.079-.27.139-.226.12-.544.297-.93.535a21.498 21.498 0 00-2.94 2.197 21.812 21.812 0 00-3.435 3.861c-.575-2.52-1.899-5.052-4.38-7.295C17.05 7.264 11.88 4.908 4.058 3.602zm16.42 24.102c.054-.122.107-.247.16-.374.803-1.946 1.536-4.51 1.406-7.16-.127-2.602-1.082-5.326-3.735-7.725-2.533-2.29-6.708-4.369-13.431-5.65a30.68 30.68 0 00-.53 2.443c-.391 2.246-.653 5.197-.19 8.152.461 2.943 1.627 5.82 4.031 8.054 2.068 1.92 5.17 3.475 9.822 4.105-.273-.64-.62-1.405-1.046-2.276-1.374-2.808-3.582-6.712-6.901-11.048a1.5 1.5 0 112.382-1.823c3.456 4.515 5.765 8.592 7.214 11.552.312.637.584 1.223.819 1.75zM3.553 36.204A.556.556 0 003 36.75a.556.556 0 00.587.546h9.565a1.5 1.5 0 010 3h-7.73l5.085 22.923c.104.42.444.681.848.681h20.79c.404 0 .744-.26.848-.681l5.084-22.923h-4.7a1.5 1.5 0 010-3h6.586a.556.556 0 00.537-.546.556.556 0 00-.553-.546H3.553zM0 36.75c0 1.516.96 2.81 2.299 3.318L7.58 63.883l.006.024c.411 1.723 1.918 2.993 3.768 2.993h20.79c1.85 0 3.357-1.27 3.768-2.993l.006-.024L41.2 40.068A3.554 3.554 0 0043.5 36.75c0-1.959-1.6-3.546-3.553-3.546H3.553A3.556 3.556 0 000 36.75z"/>
    <path fill-rule="evenodd" clip-rule="evenodd" d="M4.553 36.204A.556.556 0 004 36.75c0 .287.24.538.537.546h9.615a1.5 1.5 0 010 3h-7.73l5.085 22.923c.104.42.444.681.848.681h20.79c.404 0 .744-.26.848-.681l5.084-22.923h-4.7a1.5 1.5 0 010-3h6.586a.556.556 0 00.537-.546.556.556 0 00-.553-.546H4.553zM1 36.75c0 1.516.96 2.81 2.299 3.318L8.58 63.883l.006.024c.411 1.722 1.918 2.993 3.768 2.993h20.79c1.85 0 3.357-1.27 3.768-2.993l.006-.024L42.2 40.068A3.554 3.554 0 0044.5 36.75c0-1.959-1.6-3.546-3.553-3.546H4.553A3.556 3.556 0 001 36.75z"/>
</symbol><symbol id="plus">
    <path fill-rule="evenodd" clip-rule="evenodd" d="M7 1a1 1 0 00-2 0v4H1a1 1 0 000 2h4v4a1 1 0 102 0V7h4a1 1 0 100-2H7V1z"/>
</symbol><symbol id="provisional-patents">
    <path fill-rule="evenodd" clip-rule="evenodd" d="M39.576 0H0v52.62h4.389V57h39.625V4.332h-4.438V0zm0 7.332V52.62H7.39V54h33.625V7.332h-1.438zM3 49.62V3h33.576v46.62H3zM4.389 4.332h15.582v15.417H4.39V4.332zm3 3v9.417h9.582V7.332H7.39zM5.206 24.177h29.066v-3H5.206v3zm29.066 4.572H5.206v-3h29.066v3zM5.206 33.32h29.066v-3H5.206v3zM34.273 7.33H22.47v-3h11.803v3zM22.47 11.905h11.803v-3H22.47v3zm11.802 25.94H5.206v-3h29.066v3zm0 7.204H24.226v3h10.046v-3z"/>
</symbol><symbol id="social__fb">
    <path d="M18.6 10.4V7.9h-2.3c-1.9 0-3.2 1.6-3.2 3.6v1.4h-2.4v2.3h2.4v7h2.7v-7h2.8v-2.3h-2.8v-1.6c0-.5.3-.8.6-.8h2.2v-.1zM15 0c8.3 0 15 6.7 15 15s-6.7 15-15 15S0 23.3 0 15 6.7 0 15 0z"/>
</symbol><symbol id="social__gplus">
    <path d="M6 14.7c-.2 2.5 1.5 5 3.9 5.9 2.4.9 5.4.3 7-1.8 1-1.3 1.2-3 1.1-4.6h-5.9v2h3.5c-.5 2.5-4 3.4-5.9 1.7-1.9-1.5-1.8-4.6.2-6 1.4-1.1 3.4-.8 4.8.1.5-.5 1.1-1 1.6-1.6-1.2-.9-2.6-1.5-4.1-1.5-3.2 0-6.1 2.7-6.2 5.8zM23 12h-2v2h-2v2h2v2h2v-2h2v-2h-2v-2zM15 0c8.3 0 15 6.7 15 15s-6.7 15-15 15S0 23.3 0 15 6.7 0 15 0z"/>
</symbol><symbol id="social__in">
    <path d="M9.7 7C8.7 7 8 7.6 8 8.5S8.7 10 9.7 10c1.1 0 1.7-.6 1.7-1.5-.1-.9-.7-1.5-1.7-1.5zM8.3 21H11v-9.7H8.3V21zm10.4-10c-1.6 0-2.7.8-3.1 1.4l-.2-1H13v9.7h2.7v-5.8c0-.3 0-.6.1-.7.2-.5.9-1.1 1.7-1.1 1.1 0 1.8.8 1.8 2.1v5.6H22v-6c0-3-1.4-4.2-3.3-4.2zM0 15C0 6.7 6.7 0 15 0s15 6.7 15 15-6.7 15-15 15S0 23.3 0 15z"/>
</symbol><symbol id="social__instagram">
    <path fill-rule="evenodd" clip-rule="evenodd" d="M20.2 10.7c0-.5-.4-1-1-1-.5 0-1 .4-1 1 0 .5.4 1 1 1s1-.4 1-1zm-5.2 7c-1.5 0-2.7-1.2-2.7-2.7 0-1.5 1.2-2.7 2.7-2.7 1.5 0 2.7 1.2 2.7 2.7 0 1.5-1.2 2.7-2.7 2.7zm0-6.8c-2.3 0-4.1 1.8-4.1 4.1s1.8 4.1 4.1 4.1 4.1-1.8 4.1-4.1-1.8-4.1-4.1-4.1zm0-2.5h3.2c.8 0 1.2.2 1.5.3.4.1.6.3.9.6.3.3.5.5.6.9.1.3.2.7.3 1.5v6.4c0 .8-.2 1.2-.3 1.5-.1.4-.3.6-.6.9-.3.3-.5.5-.9.6-.3.1-.7.2-1.5.3h-6.4c-.8 0-1.2-.2-1.5-.3-.4-.1-.6-.3-.9-.6-.3-.3-.5-.5-.6-.9-.1-.3-.2-.7-.3-1.5v-3.2-3.2c0-.8.2-1.2.3-1.5.1-.4.3-.6.6-.9.3-.3.5-.5.9-.6.3-.1.7-.2 1.5-.3H15zM15 7h-3.3c-.9 0-1.4.2-1.9.4s-1 .5-1.4.9c-.5.5-.8.9-1 1.5-.2.5-.3 1.1-.4 1.9v6.6c0 .9.2 1.4.4 1.9s.5 1 .9 1.4c.4.4.9.7 1.4.9.5.2 1.1.3 1.9.4h6.6c.9 0 1.4-.2 1.9-.4s1-.5 1.4-.9c.4-.4.7-.9.9-1.4.2-.5.3-1.1.4-1.9V15v-3.3c0-.9-.2-1.4-.4-1.9s-.5-1-.9-1.4c-.4-.4-.9-.7-1.4-.9-.5-.2-1.1-.3-1.9-.4-.8-.1-1-.1-3.2-.1zm0-7c8.3 0 15 6.7 15 15s-6.7 15-15 15S0 23.3 0 15 6.7 0 15 0z"/>
</symbol><symbol id="social__pinterest">
    <path fill-rule="evenodd" clip-rule="evenodd" d="M15 7c-4.4 0-8 3.6-8 8 0 3.3 2 6.1 4.8 7.3 0-.6 0-1.2.1-1.8.2-.6 1-4.4 1-4.4s-.3-.5-.3-1.3c0-1.2.7-2.1 1.5-2.1.7 0 1.1.5 1.1 1.2s-.5 1.8-.7 2.8c-.2.8.4 1.5 1.3 1.5 1.5 0 2.5-1.9 2.5-4.3 0-1.8-1.2-3.1-3.3-3.1-2.4 0-3.9 1.8-3.9 3.8 0 .7.2 1.2.5 1.6.1.2.2.2.1.4 0 .1-.1.5-.2.6-.1.2-.2.3-.4.2-1.1-.5-1.6-1.7-1.6-3.1 0-2.3 1.9-5 5.7-5 3.1 0 5.1 2.2 5.1 4.6 0 3.1-1.7 5.5-4.3 5.5-.9 0-1.7-.5-2-1 0 0-.5 1.8-.6 2.2-.2.6-.5 1.2-.8 1.7.7.2 1.5.3 2.3.3 4.4 0 8-3.6 8-8C23 10.6 19.4 7 15 7zM0 15C0 6.7 6.7 0 15 0s15 6.7 15 15-6.7 15-15 15S0 23.3 0 15z"/>
</symbol><symbol id="social__tweeter">
    <path d="M21.1 12.3c.6-.4 1.1-.9 1.5-1.5-.5.2-1.1.4-1.7.5.6-.4 1.1-.9 1.3-1.6-.6.3-1.2.6-1.9.7-.5-.6-1.3-.9-2.2-.9-1.6 0-3 1.3-3 3 0 .2 0 .5.1.7-2.5-.1-4.6-1.3-6.1-3.1-.3.4-.4.9-.4 1.5 0 1 .5 1.9 1.3 2.5-.5 0-.9-.1-1.3-.4 0 1.4 1 2.6 2.4 2.9-.2.1-.5.1-.8.1-.2 0-.4 0-.6-.1.4 1.2 1.5 2 2.8 2.1-1 .8-2.3 1.3-3.7 1.3h-.7c1.3.8 2.9 1.3 4.5 1.3 5.4 0 8.4-4.5 8.4-8.4.1-.4.1-.5.1-.6zM15 0c8.3 0 15 6.7 15 15s-6.7 15-15 15S0 23.3 0 15 6.7 0 15 0z"/>
</symbol><symbol id="social__yelp">
    <path d="M15.1 13.5c0-1.1-.4-5.9-.4-6.1-.1-.2-.2-.3-.4-.4-.7-.2-3.3.6-3.8 1.1-.2.2-.2.4-.2.5.1.2 3.3 5.3 3.3 5.3.5.8.9.7 1 .6.1.1.5 0 .5-1zm2.7 2.3c2.7-.7 2.8-.7 2.9-.8.2-.1.2-.3.2-.5-.1-.7-1.2-2.4-1.8-2.7-.2-.1-.4-.1-.6 0-.1.1-.2.2-1.6 2.2 0 0-.6.9-.7.9-.2.2-.2.5 0 .8.2.3.5.4.7.3.2 0 .5-.1.9-.2zm1.2 6c.6-.2 1.9-1.9 2-2.6 0-.2 0-.4-.2-.5-.1-.1-.2-.1-2.5-.9 0 0-1-.3-1-.4-.3-.1-.5 0-.7.2-.2.2-.2.6-.1.8l.4.7c1.4 2.3 1.5 2.5 1.6 2.6.1.1.3.1.5.1zm-4 .8c0-.1 0-.2.1-2.7v-1.1c0-.3-.2-.5-.4-.6-.3-.1-.6 0-.8.2l-.5.6c-1.8 2.1-1.9 2.2-1.9 2.3v.2c0 .1.1.2.1.3.4.5 2.4 1.2 3 1.1.2 0 .3-.1.4-.3zm-5.7-7.9c-.3.4-.4 1.7-.3 2.6 0 .3.1.5.2.7.1.2.3.3.5.3.1 0 .2 0 2.6-.8l1.1-.3c.3-.1.4-.3.5-.6 0-.3-.1-.6-.4-.7l-.7-.3c-2.5-1.1-2.7-1.1-2.8-1.1-.4-.1-.6 0-.7.2zM15 0c8.3 0 15 6.7 15 15s-6.7 15-15 15S0 23.3 0 15 6.7 0 15 0z"/>
</symbol><symbol id="social__youtube">
    <path fill-rule="evenodd" clip-rule="evenodd" d="M13.7 17.2v-4.8l4.6 2.4-4.6 2.4zm10.1-5.6s-.2-1.2-.7-1.7c-.6-.7-1.4-.7-1.7-.7C19 9 15.5 9 15.5 9s-3.6 0-5.9.2c-.3 0-1.1 0-1.7.7-.5.5-.7 1.7-.7 1.7S7 13 7 14.3v1.3c0 1.4.2 2.8.2 2.8s.2 1.2.7 1.7c.6.7 1.5.7 1.9.7 1.4.1 5.8.2 5.8.2s3.6 0 5.9-.2c.3 0 1.1 0 1.7-.7.5-.5.7-1.7.7-1.7s.2-1.4.2-2.8v-1.3c-.2-1.3-.3-2.7-.3-2.7zM0 15C0 6.7 6.7 0 15 0s15 6.7 15 15-6.7 15-15 15S0 23.3 0 15z"/>
</symbol><symbol id="star">
    <path fill-rule="evenodd" clip-rule="evenodd" d="M8 0l2 6.1h6L11.143 10l1.81 6L8 12.5 3.048 16l1.81-6L0 6.1h6.095L8 0z"/>
</symbol><symbol id="thank-you">
    <path fill-rule="evenodd" clip-rule="evenodd" d="M34 0a1.5 1.5 0 011.5 1.5v8.144a1.5 1.5 0 01-3 0V1.5A1.5 1.5 0 0134 0zM16.496 33.805c0-9.512 7.71-17.245 17.209-17.245 9.481 0 17.222 7.722 16.937 17.269-.007 4.911-2.096 8.736-4.025 11.775-.34.536-.667 1.034-.976 1.506-.6.916-1.136 1.735-1.588 2.544-.676 1.21-.994 2.122-.994 2.882v1.086c0 1.911-1.48 3.4-3.396 3.4H27.476c-1.916 0-3.396-1.489-3.396-3.4v-1.086c0-.76-.318-1.672-.995-2.882-.452-.81-.988-1.628-1.588-2.544-.309-.472-.635-.97-.975-1.506-1.932-3.044-4.026-6.876-4.026-11.799zM33.705 19.56c-7.835 0-14.209 6.383-14.209 14.245 0 4.036 1.699 7.261 3.558 10.19.285.448.581.901.877 1.354.636.973 1.27 1.942 1.773 2.842.746 1.335 1.376 2.799 1.376 4.345v1.086c0 .16.054.25.103.298.049.049.137.102.293.102h12.187c.155 0 .244-.053.292-.102.05-.049.104-.139.104-.298v-1.086c0-1.546.63-3.01 1.375-4.345.503-.9 1.137-1.87 1.774-2.842v-.002c.296-.452.592-.904.876-1.351 1.86-2.93 3.558-6.155 3.558-10.19v-.047c.245-7.817-6.093-14.199-13.937-14.199zm24.67 13.016a1.5 1.5 0 000 3H66.5a1.5 1.5 0 000-3h-8.125zM0 34.076a1.5 1.5 0 011.5-1.5h8.125a1.5 1.5 0 010 3H1.5a1.5 1.5 0 01-1.5-1.5zM52.395 50.39a1.5 1.5 0 10-2.123 2.119l5.687 5.7a1.5 1.5 0 002.124-2.118l-5.688-5.7zM9.92 9.94a1.5 1.5 0 012.121.002l5.688 5.7a1.5 1.5 0 11-2.124 2.12L9.917 12.06a1.5 1.5 0 01.003-2.12zm7.809 42.569a1.5 1.5 0 10-2.124-2.119l-5.688 5.701a1.5 1.5 0 102.124 2.119l5.688-5.701zM58.08 9.939a1.5 1.5 0 01.003 2.121l-5.688 5.701a1.5 1.5 0 11-2.123-2.118l5.687-5.701a1.5 1.5 0 012.121-.003zM26.49 60.167c-2.123 0-3.591 1.737-3.591 3.746v4.812c0 1.075.302 2.086.952 2.854a3.41 3.41 0 002.639 1.213h1C28.875 74.653 30.9 76 33.36 76c2.402 0 4.448-1.292 5.666-3.208h.907c1.08 0 2.106-.357 2.853-1.16.734-.788 1.037-1.833 1.037-2.907v-4.812c0-2.01-1.469-3.746-3.591-3.746H26.489zm-.591 3.746c0-.29.098-.477.195-.582a.514.514 0 01.396-.164H40.23c.177 0 .303.065.396.164.097.104.195.293.195.582v4.812c0 .53-.145.77-.233.863-.074.08-.243.204-.657.204H38.14a1.5 1.5 0 00-1.36.867C36.097 72.125 34.794 73 33.36 73c-1.42 0-2.791-.868-3.804-2.5a1.5 1.5 0 00-1.275-.708H26.49c-.168 0-.268-.055-.349-.15-.096-.114-.242-.387-.242-.917v-4.812z"/>
</symbol><symbol id="trademarks">
    <path fill-rule="evenodd" clip-rule="evenodd" d="M32.24 3c-11.257 0-20.373 9.086-20.373 20.282 0 11.195 9.116 20.281 20.374 20.281s20.373-9.086 20.373-20.281C52.614 12.086 43.5 3 32.241 3zM8.868 23.282C8.867 10.418 19.337 0 32.241 0c12.903 0 23.373 10.418 23.373 23.282 0 10.048-6.389 18.604-15.336 21.868l7.312 10.154 1.452-8.676 8.556 1.427-6.584-8.875a1.5 1.5 0 012.41-1.787l11.011 14.843-12.929-2.155-2.145 12.815-12.143-16.862c-1.604.347-3.27.53-4.977.53-1.723 0-3.403-.187-5.02-.54L15.06 62.915l-2.09-12.834L0 52.233l11.01-14.84a1.5 1.5 0 012.41 1.787l-6.587 8.878 8.613-1.43 1.41 8.657 7.309-10.15c-8.927-3.273-15.298-11.82-15.298-21.853zm23.397-11.926l3.369 6.868.004.009c.214.45.65.776 1.19.853h.006l7.635 1.121-5.537 5.354c-.401.404-.542.918-.456 1.346l.005.023 1.287 7.613-6.83-3.6-.013-.008a1.514 1.514 0 00-1.415 0l-.02.01-6.817 3.515 1.28-7.572.003-.016a1.435 1.435 0 00-.422-1.33l-.011-.01-5.557-5.373 7.641-1.121a1.54 1.54 0 001.19-.854l.009-.018 3.46-6.81zm-.768 8.136a4.54 4.54 0 01-3.464 2.515l-1.597.235 1.152 1.114a4.435 4.435 0 011.318 4.062l-.275 1.626 1.448-.746a4.514 4.514 0 014.284.004l1.435.756-.268-1.585c-.292-1.498.246-3.002 1.292-4.044l.008-.008 1.17-1.131-1.595-.234h-.003a4.54 4.54 0 01-3.469-2.526l-.715-1.457-.721 1.42zm.745-14.7c-10.253 0-18.561 8.265-18.561 18.49a1.5 1.5 0 003 0c0-8.556 6.953-15.49 15.56-15.49 8.608 0 15.562 6.934 15.562 15.49a1.5 1.5 0 003 0c0-10.225-8.309-18.49-18.561-18.49z"/>
</symbol><symbol id="utility-patents">
    <path stroke-linecap="round" stroke-linejoin="round" stroke-miterlimit="10" stroke-width="3" d="M31 7h39v12H47L25 2 2 19"/>
    <path stroke-linecap="round" stroke-linejoin="round" stroke-miterlimit="10" stroke-width="3" d="M54 2h-4v5h4V2zM6 16v27h61V19"/>
    <path stroke-linecap="round" stroke-linejoin="round" stroke-miterlimit="10" stroke-width="3" d="M37 23h-3c-2 0-3 1-3 3v17h9V26c0-2-1-3-3-3z"/>
    <path stroke-miterlimit="10" stroke-width="3" d="M59 27H48v10h11V27zm-25 5v2"/>
    <path stroke-linecap="round" stroke-linejoin="round" stroke-miterlimit="10" stroke-width="3" d="M54 32v-5m-6 5h11"/>
    <path stroke-miterlimit="10" stroke-width="3" d="M24 27H13v10h11V27z"/>
    <path stroke-linecap="round" stroke-linejoin="round" stroke-miterlimit="10" stroke-width="3" d="M18 32v-5m-5 5h11"/>
</symbol><symbol id="xmark">
    <path fill-rule="evenodd" clip-rule="evenodd" d="M17.71 1.687A.988.988 0 1016.314.29L9 7.602 1.687.29A.988.988 0 10.29 1.687L7.602 9 .29 16.313a.988.988 0 101.397 1.398L9 10.398l7.313 7.313a.988.988 0 101.398-1.398L10.398 9l7.313-7.313z"/>
</symbol></svg>