<svg width="71" height="45" viewBox="0 0 71 45" fill="none" xmlns="http://www.w3.org/2000/svg">
<path d="M30.9145 6.71459H69.5V18.8939H47.3454L24.5493 2L2 18.8939" stroke="#FFE195" stroke-width="3" stroke-miterlimit="10" stroke-linecap="round" stroke-linejoin="round"/>
<path d="M53.7104 2.39288H49.8617V6.7637H53.7104V2.39288Z" stroke="#FFE195" stroke-width="3" stroke-miterlimit="10" stroke-linecap="round" stroke-linejoin="round"/>
<path d="M6.24335 15.7509V43.4H66.8848V19.0904" stroke="#FFE195" stroke-width="3" stroke-miterlimit="10" stroke-linecap="round" stroke-linejoin="round"/>
<path d="M36.9343 22.9209H33.7764C32.0987 22.9209 30.7172 24.296 30.7172 25.9658V43.3999H39.9935V25.9167C39.9935 24.2469 38.6119 22.9209 36.9343 22.9209Z" stroke="#FFE195" stroke-width="3" stroke-miterlimit="10" stroke-linecap="round" stroke-linejoin="round"/>
<path d="M59.0394 26.7516H48.2828V37.4577H59.0394V26.7516Z" stroke="#FFE195" stroke-width="3" stroke-miterlimit="10"/>
<path d="M33.9738 32.2029V33.7253" stroke="#FFE195" stroke-width="3" stroke-miterlimit="10"/>
<path d="M53.6613 32.1047V26.7516" stroke="#FFE195" stroke-width="3" stroke-miterlimit="10" stroke-linecap="round" stroke-linejoin="round"/>
<path d="M48.2828 32.2029H59.0887" stroke="#FFE195" stroke-width="3" stroke-miterlimit="10" stroke-linecap="round" stroke-linejoin="round"/>
<path d="M23.7598 26.7516H13.0032V37.4577H23.7598V26.7516Z" stroke="#FFE195" stroke-width="3" stroke-miterlimit="10"/>
<path d="M18.3815 32.1047V26.7516" stroke="#FFE195" stroke-width="3" stroke-miterlimit="10" stroke-linecap="round" stroke-linejoin="round"/>
<path d="M13.0032 32.2029H23.8092" stroke="#FFE195" stroke-width="3" stroke-miterlimit="10" stroke-linecap="round" stroke-linejoin="round"/>
</svg>
