<svg width="57" height="57" viewBox="0 0 57 57" fill="none" xmlns="http://www.w3.org/2000/svg">
<path fill-rule="evenodd" clip-rule="evenodd" d="M56.8104 0V56.1627H0L56.8104 0ZM7.30176 53.1627H53.8104V49.7713C53.5718 49.9313 53.2849 50.0245 52.9761 50.0245H51.4859C50.6575 50.0245 49.9859 49.353 49.9859 48.5245C49.9859 47.6961 50.6575 47.0245 51.4859 47.0245H52.9761C53.2849 47.0245 53.5718 47.1178 53.8104 47.2777V45.548C53.5718 45.708 53.2848 45.8013 52.976 45.8013H50.244C49.4156 45.8013 48.744 45.1297 48.744 44.3013C48.744 43.4728 49.4156 42.8013 50.244 42.8013H52.976C53.2848 42.8013 53.5718 42.8946 53.8104 43.0545V41.276C53.5718 41.4359 53.2849 41.5292 52.9761 41.5292H51.4859C50.6575 41.5292 49.9859 40.8576 49.9859 40.0292C49.9859 39.2007 50.6575 38.5292 51.4859 38.5292H52.9761C53.2849 38.5292 53.5718 38.6225 53.8104 38.7824V37.0528C53.5718 37.2127 53.2848 37.306 52.976 37.306H50.244C49.4156 37.306 48.744 36.6345 48.744 35.806C48.744 34.9776 49.4156 34.306 50.244 34.306H52.976C53.2848 34.306 53.5718 34.3993 53.8104 34.5593V32.7804C53.5718 32.9404 53.2849 33.0336 52.9761 33.0336H51.4859C50.6575 33.0336 49.9859 32.3621 49.9859 31.5336C49.9859 30.7052 50.6575 30.0336 51.4859 30.0336H52.9761C53.2849 30.0336 53.5718 30.1269 53.8104 30.2868V28.5573C53.5718 28.7173 53.2848 28.8106 52.976 28.8106H50.244C49.4156 28.8106 48.744 28.139 48.744 27.3106C48.744 26.4822 49.4156 25.8106 50.244 25.8106H52.976C53.2848 25.8106 53.5718 25.9039 53.8104 26.0639V24.2851C53.5718 24.4451 53.2849 24.5383 52.9761 24.5383H51.4859C50.6575 24.5383 49.9859 23.8668 49.9859 23.0383C49.9859 22.2099 50.6575 21.5383 51.4859 21.5383H52.9761C53.2849 21.5383 53.5718 21.6316 53.8104 21.7915V20.0619C53.5718 20.2218 53.2848 20.3151 52.976 20.3151H50.244C49.4156 20.3151 48.744 19.6436 48.744 18.8151C48.744 17.9867 49.4156 17.3151 50.244 17.3151H52.976C53.2848 17.3151 53.5718 17.4084 53.8104 17.5684V15.7899C53.5718 15.9498 53.2849 16.0431 52.9761 16.0431H51.4859C50.6575 16.0431 49.9859 15.3715 49.9859 14.5431C49.9859 13.7147 50.6575 13.0431 51.4859 13.0431H52.9761C53.2849 13.0431 53.5718 13.1364 53.8104 13.2963V7.18433L7.30176 53.1627ZM47.3726 22.4416V46.8816H22.6507L47.3726 22.4416ZM29.9525 43.8816H44.3726V29.6259L29.9525 43.8816ZM42.1586 1.39612C42.5614 1.79443 42.7055 2.38571 42.531 2.92468L39.3618 12.7158C39.313 12.8785 39.2359 13.0344 39.1308 13.1761C39.1214 13.1888 39.1118 13.2014 39.102 13.2138C39.0945 13.2233 39.0868 13.2328 39.079 13.2422L39.0653 13.2584C39.0358 13.2929 39.0048 13.3261 38.9723 13.3578L14.7564 37.2036L14.7876 37.2342L10.4131 41.4933C9.1329 42.7538 7.05359 42.7523 5.77536 41.4886L1.71799 37.4775C0.31015 36.156 0.473816 34.0775 1.61377 32.8638L1.63669 32.8394L4.92868 29.6343L4.93304 29.63L30.2483 4.70142C30.2552 4.69446 30.2621 4.68756 30.269 4.68073L30.2878 4.6626C30.2984 4.65259 30.3091 4.64273 30.32 4.633C30.3974 4.564 30.4825 4.5025 30.5746 4.45001C30.6357 4.4151 30.6986 4.38477 30.7629 4.35907C30.7818 4.35153 30.8009 4.34439 30.82 4.33765C30.8291 4.33441 30.8383 4.3313 30.8475 4.32828L30.8732 4.32004L40.6259 1.04095C41.1629 0.860413 41.7558 0.997803 42.1586 1.39612ZM32.8531 11.1187C33.5641 11.7895 34.3662 12.3647 35.2374 12.8253L12.6148 35.1022L8.12521 30.6969L30.7671 8.40094C31.2001 9.20584 31.7334 9.94754 32.3496 10.6111C31.7747 10.259 31.0132 10.3292 30.5124 10.8244L26.8366 14.4583C26.2474 15.0407 26.242 15.9904 26.8244 16.5795C27.4068 17.1687 28.3566 17.1741 28.9457 16.5917L32.6215 12.9578C33.1237 12.4614 33.2017 11.6981 32.8531 11.1187ZM36.9771 10.3416L38.76 4.83337L33.2582 6.6832C34.0312 8.28391 35.3513 9.57922 36.9771 10.3416ZM5.97754 32.8001L10.4748 37.2461L8.3168 39.3472L8.30865 39.3552C8.25815 39.4052 8.18488 39.4375 8.09656 39.4375C8.00827 39.4375 7.935 39.4052 7.88449 39.3552L3.79294 35.3103L3.77396 35.2928C3.73035 35.2525 3.71036 35.2082 3.71036 35.143C3.71036 35.0708 3.73782 34.9924 3.78748 34.9324L5.97754 32.8001Z" fill="#FFE195"/>
</svg>
