<svg width="80" height="43" viewBox="0 0 80 43" fill="none" xmlns="http://www.w3.org/2000/svg">
<path d="M23.8949 14.9067H26.7313V27.9501H24.0084L17.5982 19.5651V27.9501H14.7429V14.9067H17.4658L23.8949 23.329V14.9067Z" fill="#CDCDCF"/>
<path d="M39.4209 27.9501L38.3809 25.4159H32.2544L31.2144 27.9501H28.1322L33.8805 14.9067H36.9627L42.6165 27.9501H39.4209ZM33.2376 23.0495H37.4165L35.3365 17.9812L33.2376 23.0495Z" fill="#CDCDCF"/>
<path d="M49.6089 14.9067C51.2981 14.9067 52.6029 15.3042 53.5231 16.0993C54.4433 16.8819 54.9035 17.9937 54.9035 19.4346C54.9035 20.9501 54.437 22.1303 53.5042 22.975C52.584 23.8073 51.2855 24.2234 49.6089 24.2234H46.9806V27.9501H43.9929V14.9067H49.6089ZM49.4576 21.7638C50.3022 21.7638 50.9452 21.5775 51.3864 21.2048C51.8402 20.8197 52.0671 20.2607 52.0671 19.5278C52.0671 18.8073 51.8402 18.2669 51.3864 17.9067C50.9452 17.534 50.3022 17.3477 49.4576 17.3477H46.9806V21.7638H49.4576Z" fill="#CDCDCF"/>
<path d="M62.4243 14.9067C64.1135 14.9067 65.4182 15.3042 66.3384 16.0993C67.2587 16.8819 67.7188 17.9937 67.7188 19.4346C67.7188 20.9501 67.2524 22.1303 66.3195 22.975C65.3993 23.8073 64.1009 24.2234 62.4243 24.2234H59.7959V27.9501H56.8083V14.9067H62.4243ZM62.273 21.7638C63.1176 21.7638 63.7605 21.5775 64.2017 21.2048C64.6555 20.8197 64.8824 20.2607 64.8824 19.5278C64.8824 18.8073 64.6555 18.2669 64.2017 17.9067C63.7605 17.534 63.1176 17.3477 62.273 17.3477H59.7959V21.7638H62.273Z" fill="#CDCDCF"/>
<path fill-rule="evenodd" clip-rule="evenodd" d="M66.8913 34.1862C73.7356 30.5073 77.0909 25.8962 77.0909 21.5C77.0909 17.1038 73.7356 12.4927 66.8913 8.81384C60.1569 5.19415 50.6549 2.86667 40 2.86667C29.3451 2.86667 19.8431 5.19415 13.1088 8.81384C6.26444 12.4927 2.90909 17.1038 2.90909 21.5C2.90909 25.8962 6.26444 30.5073 13.1088 34.1862C19.8431 37.8059 29.3451 40.1333 40 40.1333C50.6549 40.1333 60.1569 37.8059 66.8913 34.1862ZM40 43C62.0914 43 80 33.3741 80 21.5C80 9.62588 62.0914 0 40 0C17.9086 0 0 9.62588 0 21.5C0 33.3741 17.9086 43 40 43Z" fill="#CDCDCF"/>
</svg>
