<svg width="59" height="20" viewBox="0 0 59 20" fill="none" xmlns="http://www.w3.org/2000/svg">
<path fill-rule="evenodd" clip-rule="evenodd" d="M3 0H56C57.7 0 59 1.3 59 3V17C59 18.7 57.7 20 56 20H3C1.3 20 0 18.7 0 17V3C0 1.3 1.3 0 3 0Z" fill="#55ACEE"/>
<path d="M27.9912 6.30273V7.57715H25.8379V13.5H24.3242V7.57715H22.1611V6.30273H27.9912ZM31.2725 8.17773H32.6836L33.4941 12.0107L34.3242 8.17773H35.7744L34.2314 13.5H32.8008L31.9658 9.62305L31.1211 13.5H29.6758L28.1816 8.17773H29.6758L30.5059 11.9961L31.2725 8.17773ZM38.6455 9.18359C38.3232 9.18359 38.0726 9.28451 37.8936 9.48633C37.7178 9.68815 37.6071 9.96159 37.5615 10.3066H39.7246C39.7018 9.9388 39.5895 9.66048 39.3877 9.47168C39.1891 9.27962 38.9417 9.18359 38.6455 9.18359ZM38.6455 8.03613C39.0882 8.03613 39.487 8.11914 39.8418 8.28516C40.1966 8.45117 40.4896 8.71322 40.7207 9.07129C40.929 9.38704 41.0641 9.75326 41.126 10.1699C41.1618 10.4141 41.1764 10.7656 41.1699 11.2246H37.5273C37.5469 11.7585 37.7145 12.1328 38.0303 12.3477C38.2223 12.4811 38.4535 12.5479 38.7236 12.5479C39.0101 12.5479 39.2428 12.4665 39.4219 12.3037C39.5195 12.2158 39.6058 12.0938 39.6807 11.9375H41.1016C41.0658 12.2533 40.9014 12.5739 40.6084 12.8994C40.1527 13.417 39.5146 13.6758 38.6943 13.6758C38.0173 13.6758 37.4199 13.4577 36.9023 13.0215C36.3848 12.5853 36.126 11.8757 36.126 10.8926C36.126 9.97135 36.3587 9.26497 36.8242 8.77344C37.293 8.2819 37.9001 8.03613 38.6455 8.03613ZM44.2119 9.18359C43.8896 9.18359 43.639 9.28451 43.46 9.48633C43.2842 9.68815 43.1735 9.96159 43.1279 10.3066H45.291C45.2682 9.9388 45.1559 9.66048 44.9541 9.47168C44.7555 9.27962 44.5081 9.18359 44.2119 9.18359ZM44.2119 8.03613C44.6546 8.03613 45.0534 8.11914 45.4082 8.28516C45.763 8.45117 46.056 8.71322 46.2871 9.07129C46.4954 9.38704 46.6305 9.75326 46.6924 10.1699C46.7282 10.4141 46.7428 10.7656 46.7363 11.2246H43.0938C43.1133 11.7585 43.2809 12.1328 43.5967 12.3477C43.7887 12.4811 44.0199 12.5479 44.29 12.5479C44.5765 12.5479 44.8092 12.4665 44.9883 12.3037C45.0859 12.2158 45.1722 12.0938 45.2471 11.9375H46.668C46.6322 12.2533 46.4678 12.5739 46.1748 12.8994C45.7191 13.417 45.0811 13.6758 44.2607 13.6758C43.5837 13.6758 42.9863 13.4577 42.4688 13.0215C41.9512 12.5853 41.6924 11.8757 41.6924 10.8926C41.6924 9.97135 41.9251 9.26497 42.3906 8.77344C42.8594 8.2819 43.4665 8.03613 44.2119 8.03613ZM47.1318 9.21777V8.22656H47.874V6.74219H49.251V8.22656H50.1152V9.21777H49.251V12.0303C49.251 12.2484 49.2786 12.3851 49.334 12.4404C49.3893 12.4925 49.5586 12.5186 49.8418 12.5186C49.8841 12.5186 49.9281 12.5186 49.9736 12.5186C50.0225 12.5153 50.0697 12.512 50.1152 12.5088V13.5488L49.4561 13.5732C48.7985 13.596 48.3493 13.4821 48.1084 13.2314C47.9521 13.0719 47.874 12.8262 47.874 12.4941V9.21777H47.1318Z" fill="white"/>
<path fill-rule="evenodd" clip-rule="evenodd" d="M16.6 7.49999V7.89999C16.6 11.4 14 15.5 9 15.5C7.5 15.5 6.1 15.1 5 14.3H5.6C6.8 14.3 8 13.9 8.9 13.2C7.8 13.2 6.8 12.4 6.4 11.4C6.6 11.4 6.8 11.5 6.9 11.5C7.2 11.5 7.3 11.5 7.6 11.4C6.4 11.1 5.5 10.1 5.5 8.79999C5.9 8.99999 6.3 9.19999 6.7 9.19999C6 8.79999 5.6 7.89999 5.6 6.99999C5.6 6.49999 5.7 5.99999 6 5.69999C7.3 7.29999 9.19999 8.29999 11.4 8.49999C11.3 8.29999 11.3 8.09999 11.3 7.89999C11.3 6.39999 12.5 5.29999 13.9 5.29999C14.7 5.29999 15.4 5.69999 15.8 6.19999C16.4 6.09999 16.9 5.79999 17.5 5.59999C17.3 6.19999 16.9 6.69999 16.4 7.09999C16.9 6.99999 17.5 6.89999 17.9 6.69999C17.6 6.69999 17.1 7.19999 16.6 7.49999Z" fill="white"/>
</svg>
