<svg width="30" height="30" viewBox="0 0 30 30" fill="none" xmlns="http://www.w3.org/2000/svg">
<path fill-rule="evenodd" clip-rule="evenodd" d="M15 7C10.6 7 7 10.6 7 15C7 18.3 9 21.1 11.8 22.3C11.8 21.7 11.8 21.1 11.9 20.5C12.1 19.9 12.9 16.1 12.9 16.1C12.9 16.1 12.6 15.6 12.6 14.8C12.6 13.6 13.3 12.7 14.1 12.7C14.8 12.7 15.2 13.2 15.2 13.9C15.2 14.6 14.7 15.7 14.5 16.7C14.3 17.5 14.9 18.2 15.8 18.2C17.3 18.2 18.3 16.3 18.3 13.9C18.3 12.1 17.1 10.8 15 10.8C12.6 10.8 11.1 12.6 11.1 14.6C11.1 15.3 11.3 15.8 11.6 16.2C11.7 16.4 11.8 16.4 11.7 16.6C11.7 16.7 11.6 17.1 11.5 17.2C11.4 17.4 11.3 17.5 11.1 17.4C10 16.9 9.5 15.7 9.5 14.3C9.5 12 11.4 9.3 15.2 9.3C18.3 9.3 20.3 11.5 20.3 13.9C20.3 17 18.6 19.4 16 19.4C15.1 19.4 14.3 18.9 14 18.4C14 18.4 13.5 20.2 13.4 20.6C13.2 21.2 12.9 21.8 12.6 22.3C13.3 22.5 14.1 22.6 14.9 22.6C19.3 22.6 22.9 19 22.9 14.6C23 10.6 19.4 7 15 7ZM0 15C0 6.7 6.7 0 15 0C23.3 0 30 6.7 30 15C30 23.3 23.3 30 15 30C6.7 30 0 23.3 0 15Z" fill="white"/>
</svg>
