<svg width="65" height="63" viewBox="0 0 65 63" fill="none" xmlns="http://www.w3.org/2000/svg">
<path fill-rule="evenodd" clip-rule="evenodd" d="M32.2407 3C20.9828 3 11.8673 12.0863 11.8673 23.2816C11.8673 34.4768 20.9828 43.5631 32.2407 43.5631C43.4987 43.5631 52.6142 34.4768 52.6142 23.2816C52.6142 12.0863 43.4987 3 32.2407 3ZM8.86728 23.2816C8.86728 10.4176 19.3379 0 32.2407 0C45.1436 0 55.6142 10.4176 55.6142 23.2816C55.6142 33.3303 49.2251 41.8862 40.2783 45.1498L47.5903 55.3035L49.0423 46.6283L57.5978 48.0546L51.0139 39.1802C50.5203 38.5149 50.6595 37.5754 51.3248 37.0818C51.9902 36.5882 52.9296 36.7274 53.4232 37.3927L64.4353 52.236L51.5062 50.0805L49.3612 62.8964L37.2181 46.034C35.614 46.3806 33.9487 46.5631 32.2407 46.5631C30.5179 46.5631 28.8384 46.3774 27.2215 46.0249L15.0587 62.9146L12.9687 50.0805L0 52.2328L11.0098 37.3927C11.5034 36.7274 12.4429 36.5882 13.1082 37.0818C13.7735 37.5754 13.9127 38.5149 13.4191 39.1802L6.83292 48.0578L15.446 46.6283L16.8558 55.2853L24.1648 45.1358C15.2382 41.8617 8.86728 33.3159 8.86728 23.2816ZM32.2644 11.3558L35.633 18.2245L35.6369 18.2325C35.8513 18.6833 36.2875 19.0092 36.8267 19.086L36.8333 19.0869L44.4681 20.2073L38.9311 25.5612C38.5299 25.9648 38.3891 26.4792 38.475 26.9069L38.4795 26.9295L39.7672 34.5428L32.9375 30.9423L32.9243 30.935C32.5012 30.7009 31.9318 30.7009 31.5087 30.935L31.4894 30.9456L24.6716 34.46L25.9523 26.8879L25.9553 26.8721C26.0533 26.36 25.8811 25.866 25.5325 25.542L25.5217 25.5319L19.9649 20.1589L27.6062 19.0375C28.1455 18.9608 28.5817 18.6349 28.7961 18.1841L28.8045 18.1665L32.2644 11.3558ZM31.4959 19.4922C30.833 20.869 29.5261 21.7935 28.0323 22.0071L26.4346 22.2416L27.5868 23.3557C28.684 24.383 29.1879 25.9086 28.9052 27.4183L28.6302 29.0444L30.0778 28.2982C31.3962 27.5786 33.0446 27.5798 34.3619 28.3018L35.797 29.0584L35.5288 27.4727C35.2372 25.9748 35.7747 24.4705 36.8209 23.4288L36.8287 23.421L37.9984 22.29L36.4042 22.0561L36.4007 22.0555C34.9031 21.8413 33.5934 20.9127 32.932 19.5301L32.2172 18.0725L31.4959 19.4922ZM32.2408 4.79181C21.9885 4.79181 13.6795 13.0568 13.6795 23.2814C13.6795 24.1098 14.3511 24.7814 15.1795 24.7814C16.008 24.7814 16.6795 24.1098 16.6795 23.2814C16.6795 14.7255 23.6334 7.79181 32.2408 7.79181C40.8483 7.79181 47.8021 14.7255 47.8021 23.2814C47.8021 24.1098 48.4737 24.7814 49.3021 24.7814C50.1306 24.7814 50.8021 24.1098 50.8021 23.2814C50.8021 13.0568 42.4932 4.79181 32.2408 4.79181Z" fill="#FFE195"/>
</svg>
