<svg width="57" height="57" viewBox="0 0 57 57" fill="none" xmlns="http://www.w3.org/2000/svg">
<path fill-rule="evenodd" clip-rule="evenodd" d="M47.4318 7.75027C48.1746 8.11703 48.4794 9.01653 48.1127 9.75934L46.7677 9.09525C48.1127 9.75934 48.1116 9.76144 48.1116 9.76144L48.1105 9.76372L48.108 9.76882L48.1017 9.78118L48.0846 9.81437C48.071 9.84019 48.0532 9.87333 48.031 9.9133C47.9864 9.99323 47.924 10.1005 47.8417 10.2312C47.6772 10.4925 47.4334 10.8477 47.0954 11.2647C46.419 12.0994 45.367 13.1799 43.8241 14.2485C40.7226 16.3967 35.7272 18.4355 28 18.4355C27.1716 18.4355 26.5 17.764 26.5 16.9355C26.5 16.1071 27.1716 15.4355 28 15.4355C35.1693 15.4355 39.5578 13.5542 42.116 11.7823C43.403 10.8908 44.2498 10.0113 44.7647 9.37587C45.0225 9.05783 45.1974 8.80051 45.3028 8.63307C45.3555 8.54937 45.3907 8.48823 45.4102 8.45331C45.4199 8.43586 45.4257 8.42497 45.4277 8.42112L45.4245 8.42751M47.4318 7.75027C46.6924 7.3852 45.7977 7.68579 45.4277 8.42112L47.4318 7.75027Z" fill="#FFE195"/>
<path fill-rule="evenodd" clip-rule="evenodd" d="M9.83625 7.75027C9.09344 8.11703 8.78859 9.01653 9.15535 9.75934L10.5003 9.09525C9.15535 9.75934 9.15586 9.76038 9.15639 9.76144L9.15752 9.76372L9.16007 9.76882L9.16632 9.78118L9.18347 9.81437C9.19701 9.84019 9.2148 9.87333 9.23707 9.9133C9.2816 9.99323 9.34407 10.1005 9.42633 10.2312C9.59083 10.4925 9.83467 10.8477 10.1726 11.2647C10.849 12.0994 11.9011 13.1799 13.4439 14.2485C16.5454 16.3967 21.5408 18.4355 29.268 18.4355C30.0965 18.4355 30.768 17.764 30.768 16.9355C30.768 16.1071 30.0965 15.4355 29.268 15.4355C22.0987 15.4355 17.7103 13.5542 15.1521 11.7823C13.865 10.8908 13.0183 10.0113 12.5033 9.37587C12.2456 9.05783 12.0706 8.80051 11.9652 8.63307C11.9125 8.54937 11.8773 8.48823 11.8578 8.45331C11.8481 8.43586 11.8423 8.42497 11.8403 8.42112L11.8435 8.42751M9.83625 7.75027C10.5756 7.3852 11.4704 7.68579 11.8403 8.42112L9.83625 7.75027ZM11.8403 8.42112C11.8403 8.42104 11.8404 8.4212 11.8403 8.42112C11.8394 8.41944 11.8395 8.41955 11.8403 8.42112Z" fill="#FFE195"/>
<path fill-rule="evenodd" clip-rule="evenodd" d="M0 28.5C0 12.775 12.775 0 28.5 0C44.2065 0 56.9642 12.7917 56.9999 28.483C57 28.4887 57 28.4943 57 28.5C57 28.5004 57 28.5008 57 28.5012L57 28.5245L57 28.549L56.9999 28.5636C56.9655 44.2486 44.2213 56.9824 28.5325 57C28.5107 57.0005 28.489 57.0005 28.4673 57C12.7591 56.9824 0 44.2648 0 28.5ZM22.481 53.2863C11.7775 50.6989 3.70045 41.3638 3.04325 30H12.5682C12.8921 40.1372 16.4776 46.7879 20.1472 50.9488C20.9353 51.8425 21.7242 52.6179 22.481 53.2863ZM34.5233 53.2825C45.2222 50.685 53.2973 41.3268 53.9565 30H44.4318C44.1079 40.1372 40.5223 46.7879 36.8528 50.9488C36.0661 51.8408 35.2787 52.615 34.5233 53.2825ZM53.9536 27C53.2616 15.4817 44.9052 5.97958 33.9303 3.58353C34.732 4.28082 35.5728 5.09888 36.4126 6.05118C40.0822 10.2121 43.6677 16.8628 43.9917 27H53.9536ZM22.4767 3.71756C11.7778 6.31503 3.70268 15.6732 3.04353 27H12.5682C12.8921 16.8628 16.4776 10.2121 20.1472 6.05118C20.9338 5.15924 21.7212 4.38504 22.4767 3.71756ZM27 30V52.9693C25.7462 52.1553 24.074 50.8659 22.3972 48.9645C19.1853 45.3226 15.89 39.3626 15.5698 30H27ZM30 52.9693C31.2538 52.1552 32.926 50.8658 34.6028 48.9645C37.8147 45.3226 41.11 39.3626 41.4301 30H30V52.9693ZM22.3972 8.03549C24.074 6.13416 25.7462 4.84473 27 4.03067V27H15.5698C15.89 17.6374 19.1853 11.6775 22.3972 8.03549ZM34.1626 8.03549C32.6752 6.34888 31.1913 5.14377 30 4.32486V27H40.99C40.6698 17.6374 37.3745 11.6775 34.1626 8.03549Z" fill="#FFE195"/>
<path fill-rule="evenodd" clip-rule="evenodd" d="M11.0721 48.5791C10.7022 49.3144 9.80756 49.6148 9.06818 49.2497C8.32537 48.883 8.02052 47.9835 8.38728 47.2407L9.73227 47.9047C8.38728 47.2407 8.38779 47.2396 8.38832 47.2386L8.38945 47.2363L8.392 47.2312L8.39824 47.2188L8.4154 47.1856C8.42894 47.1598 8.44673 47.1267 8.46899 47.0867C8.51352 47.0068 8.576 46.8995 8.65826 46.7688C8.82276 46.5075 9.0666 46.1523 9.40453 45.7353C10.0809 44.9006 11.133 43.8201 12.6758 42.7515C15.7773 40.6033 20.7727 38.5645 28.5 38.5645C29.3284 38.5645 30 39.236 30 40.0645C30 40.8929 29.3284 41.5645 28.5 41.5645C21.3307 41.5645 16.9422 43.4458 14.384 45.2177C13.097 46.1092 12.2502 46.9887 11.7353 47.6241C11.4775 47.9422 11.3025 48.1995 11.1971 48.3669C11.1445 48.4506 11.1092 48.5118 11.0898 48.5467C11.08 48.5641 11.0743 48.575 11.0723 48.5789M11.0721 48.5791C11.0721 48.5791 11.0721 48.5791 11.0721 48.5791L11.0721 48.5791Z" fill="#FFE195"/>
<path fill-rule="evenodd" clip-rule="evenodd" d="M45.4278 48.5791C45.7978 49.3144 46.6924 49.6148 47.4318 49.2497C48.1746 48.883 48.4795 47.9835 48.1127 47.2407L46.7677 47.9047C48.1127 47.2407 48.1122 47.2396 48.1117 47.2386L48.1105 47.2363L48.108 47.2312L48.1017 47.2188L48.0846 47.1856C48.071 47.1598 48.0532 47.1267 48.031 47.0867C47.9864 47.0068 47.924 46.8995 47.8417 46.7688C47.6772 46.5075 47.4334 46.1523 47.0954 45.7353C46.419 44.9006 45.367 43.8201 43.8242 42.7515C40.7226 40.6033 35.7273 38.5645 28 38.5645C27.1716 38.5645 26.5 39.236 26.5 40.0645C26.5 40.8929 27.1716 41.5645 28 41.5645C35.1693 41.5645 39.5578 43.4458 42.116 45.2177C43.403 46.1092 44.2498 46.9887 44.7647 47.6241C45.0225 47.9422 45.1974 48.1995 45.3028 48.3669C45.3555 48.4506 45.3908 48.5118 45.4102 48.5467C45.4199 48.5641 45.4257 48.575 45.4277 48.5789M45.4278 48.5791C45.4278 48.5791 45.4278 48.5791 45.4278 48.5791L45.4278 48.5791Z" fill="#FFE195"/>
</svg>
