<svg width="30" height="30" viewBox="0 0 30 30" fill="none" xmlns="http://www.w3.org/2000/svg">
<path d="M9.7 7C8.7 7 8 7.6 8 8.5C8 9.4 8.7 10 9.7 10C10.8 10 11.4 9.4 11.4 8.5C11.3 7.6 10.7 7 9.7 7ZM8.3 21H11V11.3H8.3V21ZM18.7 11C17.1 11 16 11.8 15.6 12.4L15.4 11.4H13V21.1H15.7V15.3C15.7 15 15.7 14.7 15.8 14.6C16 14.1 16.7 13.5 17.5 13.5C18.6 13.5 19.3 14.3 19.3 15.6V21.2H22V15.2C22 12.2 20.6 11 18.7 11ZM0 15C0 6.7 6.7 0 15 0C23.3 0 30 6.7 30 15C30 23.3 23.3 30 15 30C6.7 30 0 23.3 0 15Z" fill="white"/>
</svg>
