<svg width="30" height="30" viewBox="0 0 30 30" fill="none" xmlns="http://www.w3.org/2000/svg">
<path fill-rule="evenodd" clip-rule="evenodd" d="M20.2 10.7C20.2 10.2 19.8 9.7 19.2 9.7C18.7 9.7 18.2 10.1 18.2 10.7C18.2 11.2 18.6 11.7 19.2 11.7C19.8 11.7 20.2 11.3 20.2 10.7ZM15 17.7C13.5 17.7 12.3 16.5 12.3 15C12.3 13.5 13.5 12.3 15 12.3C16.5 12.3 17.7 13.5 17.7 15C17.7 16.5 16.5 17.7 15 17.7ZM15 10.9C12.7 10.9 10.9 12.7 10.9 15C10.9 17.3 12.7 19.1 15 19.1C17.3 19.1 19.1 17.3 19.1 15C19.1 12.7 17.3 10.9 15 10.9ZM15 8.4C17.1 8.4 17.4 8.4 18.2 8.4C19 8.4 19.4 8.6 19.7 8.7C20.1 8.8 20.3 9 20.6 9.3C20.9 9.6 21.1 9.8 21.2 10.2C21.3 10.5 21.4 10.9 21.5 11.7C21.5 12.5 21.5 12.8 21.5 14.9C21.5 17 21.5 17.3 21.5 18.1C21.5 18.9 21.3 19.3 21.2 19.6C21.1 20 20.9 20.2 20.6 20.5C20.3 20.8 20.1 21 19.7 21.1C19.4 21.2 19 21.3 18.2 21.4C17.4 21.4 17.1 21.4 15 21.4C12.9 21.4 12.6 21.4 11.8 21.4C11 21.4 10.6 21.2 10.3 21.1C9.9 21 9.7 20.8 9.4 20.5C9.1 20.2 8.9 20 8.8 19.6C8.7 19.3 8.6 18.9 8.5 18.1C8.5 17.3 8.5 17 8.5 14.9C8.5 12.8 8.5 12.5 8.5 11.7C8.5 10.9 8.7 10.5 8.8 10.2C8.9 9.8 9.1 9.6 9.4 9.3C9.7 9 9.9 8.8 10.3 8.7C10.6 8.6 11 8.5 11.8 8.4C12.6 8.4 12.9 8.4 15 8.4ZM15 7C12.8 7 12.6 7 11.7 7C10.8 7 10.3 7.2 9.8 7.4C9.3 7.6 8.8 7.9 8.4 8.3C7.9 8.8 7.6 9.2 7.4 9.8C7.2 10.3 7.1 10.9 7 11.7C7 12.6 7 12.8 7 15C7 17.2 7 17.4 7 18.3C7 19.2 7.2 19.7 7.4 20.2C7.6 20.7 7.9 21.2 8.3 21.6C8.7 22 9.2 22.3 9.7 22.5C10.2 22.7 10.8 22.8 11.6 22.9C12.5 22.9 12.7 22.9 14.9 22.9C17.1 22.9 17.3 22.9 18.2 22.9C19.1 22.9 19.6 22.7 20.1 22.5C20.6 22.3 21.1 22 21.5 21.6C21.9 21.2 22.2 20.7 22.4 20.2C22.6 19.7 22.7 19.1 22.8 18.3C22.8 17.4 22.8 17.2 22.8 15C22.8 12.8 22.8 12.6 22.8 11.7C22.8 10.8 22.6 10.3 22.4 9.8C22.2 9.3 21.9 8.8 21.5 8.4C21.1 8 20.6 7.7 20.1 7.5C19.6 7.3 19 7.2 18.2 7.1C17.4 7 17.2 7 15 7ZM15 0C23.3 0 30 6.7 30 15C30 23.3 23.3 30 15 30C6.7 30 0 23.3 0 15C0 6.7 6.7 0 15 0Z" fill="white"/>
</svg>
