<svg width="30" height="30" viewBox="0 0 30 30" fill="none" xmlns="http://www.w3.org/2000/svg">
<path d="M6 14.7C5.8 17.2 7.49999 19.7 9.89999 20.6C12.3 21.5 15.3 20.9 16.9 18.8C17.9 17.5 18.1 15.8 18 14.2C18 14.2 14.1 14.2 12.1 14.2C12.1 14.9 12.1 15.6 12.1 16.2C13.3 16.2 14.4 16.2 15.6 16.2C15.1 18.7 11.6 19.6 9.7 17.9C7.8 16.4 7.89999 13.3 9.89999 11.9C11.3 10.8 13.3 11.1 14.7 12C15.2 11.5 15.8 11 16.3 10.4C15.1 9.5 13.7 8.9 12.2 8.9C9 8.9 6.1 11.6 6 14.7ZM23 12H21C21 12.7 21 13.3 21 14C20.3 14 19.7 14 19 14V16C19.7 16 20.3 16 21 16C21 16.7 21 17.3 21 18H23C23 17.3 23 16.7 23 16C23.7 16 24.3 16 25 16V14C24.3 14 23.7 14 23 14C23 13.3 23 12.7 23 12ZM15 0C23.3 0 30 6.7 30 15C30 23.3 23.3 30 15 30C6.7 30 0 23.3 0 15C0 6.7 6.7 0 15 0Z" fill="white"/>
</svg>
