<svg width="47" height="32" viewBox="0 0 47 32" fill="none" xmlns="http://www.w3.org/2000/svg">
<path d="M24.1054 18.4926C24.0225 18.6591 23.9396 18.7702 23.8843 18.8812C21.8666 23.0732 19.8766 27.2652 18.2735 31.6515C18.2183 31.7903 18.0524 31.9291 17.9142 31.9569C17.3338 32.0957 17.0021 31.9013 16.7534 31.3461C14.5975 26.4323 12.4417 21.5463 10.2306 16.6326C8.32347 12.4128 6.36109 8.19308 4.42635 3.97334C4.23288 3.58468 4.0394 3.19602 3.81829 2.83512C3.21023 1.78019 2.29814 1.25272 1.10966 1.1972C0.860905 1.16944 0.612153 1.16943 0.39104 1.14167C0.0870094 1.11391 -0.0235469 0.947343 0.00409219 0.558683C0.0317313 0.197784 0.197566 0.00345386 0.501596 0.0312153C1.41369 0.0589767 2.29814 0.142261 3.21023 0.142261C5.53192 0.1145 7.88124 0.0867382 10.2029 0.0312153C10.424 0.0312153 10.7004 0.00345427 10.7281 0.281069C10.7557 0.530922 10.6728 0.808537 10.6175 1.05839C10.6175 1.11391 10.4793 1.11391 10.3964 1.14167C9.89889 1.1972 9.40139 1.25272 8.87625 1.336C8.71041 1.36377 8.54458 1.41929 8.37874 1.50257C7.9918 1.66914 7.8536 1.91899 7.9918 2.30765C8.3511 3.36259 8.71041 4.44529 9.15264 5.47246C11.3914 10.4695 13.6578 15.4388 15.9242 20.4081C16.6981 22.1293 17.5273 23.8228 18.3288 25.5162C18.3841 25.6273 18.4394 25.7383 18.5223 25.9049C18.771 25.3774 19.0198 24.8777 19.2409 24.4058C20.3741 22.0183 21.4797 19.603 22.6129 17.2155C22.9169 16.6048 22.9169 16.0218 22.6405 15.4111C21.452 12.8015 20.2912 10.1919 19.1304 7.61009C18.5223 6.24978 17.8866 4.91723 17.2233 3.58468C17.0574 3.2793 16.8916 2.97393 16.6981 2.66855C16.0901 1.72466 15.2056 1.28048 14.1277 1.22496C13.9066 1.22496 13.7131 1.1972 13.492 1.16944C13.1603 1.14167 12.9668 0.891821 13.0221 0.530922C13.0498 0.170023 13.2432 0.031217 13.6025 0.0589784C16.173 0.0867399 18.7434 0.142261 21.3138 0.170023C21.9772 0.170023 22.6405 0.114501 23.3039 0.0589784C23.6355 0.031217 23.7737 0.170023 23.8014 0.530922C23.829 0.919582 23.6908 1.14167 23.3868 1.16944C22.8064 1.22496 22.2259 1.25272 21.6455 1.36377C20.9269 1.47481 20.7058 1.80795 20.9269 2.50198C21.148 3.19602 21.4244 3.8623 21.7008 4.50081C22.7511 6.91605 23.829 9.30354 24.8793 11.691C24.9069 11.7743 24.9622 11.8576 25.0175 11.9964C25.0728 11.9409 25.1004 11.9131 25.128 11.8576C26.4271 9.16473 27.6708 6.41635 28.6935 3.58468C28.8317 3.16826 28.9422 2.75184 28.9975 2.33542C29.0804 1.66914 28.7764 1.336 28.1131 1.28048C27.6156 1.22496 27.0904 1.1972 26.5929 1.14167C26.3165 1.11391 26.1231 0.86406 26.1507 0.503161C26.1783 0.170024 26.3442 0.0312153 26.6758 0.0312153C28.8317 0.0589767 31.0152 0.1145 33.171 0.142261C33.8344 0.142261 34.4977 0.0867382 35.161 0.0312153C35.4927 0.00345386 35.6033 0.114501 35.6309 0.4754C35.6586 0.919583 35.548 1.11391 35.2163 1.14167C34.9123 1.16943 34.6083 1.1972 34.3319 1.1972C33.3645 1.22496 32.5906 1.66914 32.0102 2.44646C31.6232 2.94617 31.2916 3.50139 30.9875 4.05662C29.3568 7.0271 27.892 10.0531 26.4824 13.1346C26.1231 13.8842 26.206 14.5227 26.5376 15.2167C27.5326 17.3821 28.5 19.5475 29.4674 21.7407C30.0202 23.0177 30.6006 24.267 31.1534 25.544C31.2087 25.655 31.2639 25.7661 31.3192 25.9049C31.4021 25.7383 31.4574 25.655 31.485 25.544C34.249 19.2699 36.8194 12.9125 39.3069 6.52739C39.7768 5.33365 40.1914 4.11215 40.5783 2.89064C40.8823 1.94676 40.4678 1.36376 39.4727 1.25272C38.9752 1.1972 38.4777 1.16943 37.9802 1.11391C37.6762 1.08615 37.4827 0.836299 37.5104 0.4754C37.5104 0.142263 37.7038 -0.0243072 38.0355 0.00345429C40.1637 0.0312157 42.2919 0.086739 44.4202 0.1145C45.0835 0.1145 45.7468 0.0589772 46.4102 0.00345429C46.7695 -0.0243072 46.9353 0.1145 46.9906 0.447637C47.0459 0.808536 46.8524 1.08615 46.5484 1.11391C46.1891 1.16943 45.8297 1.1972 45.4704 1.25272C44.586 1.39153 43.895 1.89123 43.4804 2.64079C42.8724 3.69573 42.2919 4.77842 41.8221 5.88888C39.0858 12.2463 36.3772 18.6314 33.6962 25.0165C32.7841 27.1819 31.9549 29.3751 31.1257 31.5682C30.9875 31.9013 30.7388 31.9291 30.4624 31.9291C30.186 31.9014 29.882 31.9569 29.7438 31.596C28.2789 27.5983 26.4824 23.7117 24.7411 19.8251C24.52 19.4365 24.3265 18.9923 24.1054 18.4926Z" fill="white" fill-opacity="0.8"/>
<path d="M31.0979 9.99756C31.0979 10.3307 31.0979 10.6083 31.0979 10.9137C31.3467 10.8026 31.5125 10.6916 31.706 10.6083C32.2311 10.3585 32.7563 10.1919 33.3367 10.2752C34.387 10.4417 35.1332 11.3023 35.2161 12.385C35.3543 14.6337 33.7236 16.1606 31.4849 15.8552C31.2085 15.8275 31.0703 15.883 31.0703 16.1606C31.0703 16.8824 31.0703 17.5764 31.0979 18.2982C31.0979 18.5758 31.2637 18.7424 31.5401 18.7702C31.6783 18.7979 31.8165 18.7979 31.9271 18.8257C32.01 18.8535 32.0653 18.9367 32.1206 18.9923C32.0376 19.0478 31.9547 19.1311 31.8718 19.1311C31.2637 19.1311 30.6557 19.1311 30.0476 19.1311C29.8542 19.1311 29.6607 19.1588 29.4396 19.1311C29.3567 19.1311 29.3014 19.0478 29.2461 18.9923C29.3014 18.9367 29.3567 18.8535 29.4119 18.8257C30.0476 18.6314 30.0753 18.6314 30.0753 17.9373C30.0753 15.883 30.0753 13.8009 30.0753 11.7465C30.0753 11.4412 30.02 11.1913 29.7436 10.997C29.6883 10.9692 29.6607 10.6916 29.716 10.6638C30.1858 10.4695 30.6004 10.2752 31.0979 9.99756ZM31.0979 13.1346C31.0979 13.6065 31.0703 14.0785 31.0979 14.5227C31.1256 14.717 31.2085 14.9669 31.3743 15.1057C31.9271 15.6609 32.9221 15.6331 33.4749 15.1057C34.2211 14.3561 34.4146 12.7459 33.8342 11.7743C33.3367 10.9692 32.4246 10.6638 31.5678 11.0803C31.2638 11.2191 31.0979 11.4412 31.0979 11.7743C31.0979 12.2185 31.0979 12.6627 31.0979 13.1346Z" fill="white" fill-opacity="0.8"/>
<path d="M18.2729 13.329C18.2729 13.4955 18.2729 13.6066 18.2729 13.6899C18.2453 15.2445 18.2453 16.7992 18.2453 18.3538C18.2453 18.8813 18.3558 18.9923 18.881 19.1034C18.9639 19.1311 19.0468 19.2422 19.1297 19.3254C19.0468 19.381 18.9363 19.4643 18.8533 19.4643C18.1071 19.4643 17.3332 19.4643 16.5869 19.4643C16.504 19.4643 16.3935 19.381 16.3105 19.3254C16.3935 19.2422 16.4487 19.1311 16.5593 19.1311C17.1121 19.0201 17.2226 18.9368 17.2226 18.3816C17.2226 17.3266 17.2226 16.2439 17.2226 15.189C17.2226 14.8559 17.1121 14.606 16.8357 14.4394C16.5869 14.2729 16.6146 14.1618 16.891 14.023C17.3056 13.7732 17.7754 13.5511 18.2729 13.329Z" fill="white" fill-opacity="0.8"/>
<path d="M17.6366 11.8854C17.1667 11.8854 16.918 11.6355 16.918 11.1636C16.918 10.7194 17.222 10.414 17.6642 10.414C18.0788 10.414 18.3828 10.7194 18.3828 11.1636C18.3552 11.6077 18.1065 11.8854 17.6366 11.8854Z" fill="white" fill-opacity="0.8"/>
</svg>
