<svg width="68" height="76" viewBox="0 0 68 76" fill="none" xmlns="http://www.w3.org/2000/svg">
<path fill-rule="evenodd" clip-rule="evenodd" d="M34 0C34.8284 0 35.5 0.67157 35.5 1.5V9.64398C35.5 10.4724 34.8284 11.144 34 11.144C33.1716 11.144 32.5 10.4724 32.5 9.64398V1.5C32.5 0.67157 33.1716 0 34 0ZM16.4963 33.8052C16.4963 24.2932 24.2063 16.5602 33.7047 16.5602C43.186 16.5602 50.9268 24.282 50.6422 33.8286C50.6355 38.7401 48.5458 42.5654 46.6168 45.6036C46.2765 46.1397 45.9504 46.6378 45.6412 47.11L45.6411 47.1102C45.0413 48.0263 44.5053 48.8449 44.0532 49.6541C43.377 50.8644 43.0588 51.7756 43.0588 52.5364V53.6223C43.0588 55.5332 41.5781 57.0225 39.663 57.0225H27.4755C25.5604 57.0225 24.0797 55.5332 24.0797 53.6223V52.5364C24.0797 51.7756 23.7615 50.8644 23.0853 49.6541C22.6331 48.8448 22.0972 48.0262 21.4973 47.11C21.1881 46.6378 20.862 46.1397 20.5217 45.6036C18.5897 42.5605 16.4963 38.7279 16.4963 33.8052ZM33.7047 19.5602C25.8697 19.5602 19.4963 25.9434 19.4963 33.8052C19.4963 37.8409 21.1946 41.0664 23.0543 43.9956C23.3385 44.4431 23.635 44.8964 23.9309 45.3488L23.931 45.3489C24.5675 46.3218 25.2014 47.2909 25.7043 48.1909C26.4499 49.5256 27.0797 50.9898 27.0797 52.5364V53.6223C27.0797 53.7812 27.1344 53.8712 27.1832 53.9202C27.2319 53.9689 27.3201 54.0225 27.4755 54.0225H39.663C39.8184 54.0225 39.9066 53.9689 39.9553 53.9202C40.0041 53.8712 40.0588 53.7812 40.0588 53.6223V52.5364C40.0588 50.9898 40.6886 49.5256 41.4342 48.1909C41.9371 47.2908 42.5711 46.3217 43.2076 45.3488L43.2085 45.3474C43.5041 44.8954 43.8003 44.4427 44.0842 43.9956C45.9439 41.0664 47.6422 37.8409 47.6422 33.8052C47.6422 33.7896 47.6424 33.774 47.6429 33.7585C47.8866 25.942 41.5489 19.5602 33.7047 19.5602ZM58.375 32.5762C57.5466 32.5762 56.875 33.2478 56.875 34.0762C56.875 34.9046 57.5466 35.5762 58.375 35.5762H66.5C67.3284 35.5762 68 34.9046 68 34.0762C68 33.2478 67.3284 32.5762 66.5 32.5762H58.375ZM0 34.0762C0 33.2478 0.671573 32.5762 1.5 32.5762H9.625C10.4534 32.5762 11.125 33.2478 11.125 34.0762C11.125 34.9046 10.4534 35.5762 9.625 35.5762H1.5C0.671573 35.5762 0 34.9046 0 34.0762ZM52.3953 50.3902C51.8102 49.8037 50.8605 49.8026 50.274 50.3877C49.6875 50.9728 49.6864 51.9226 50.2715 52.509L55.959 58.2098C56.5441 58.7963 57.4939 58.7974 58.0804 58.2123C58.6668 57.6272 58.6679 56.6775 58.0828 56.091L52.3953 50.3902ZM9.91986 9.93921C10.5063 9.3541 11.4561 9.35519 12.0412 9.94168L17.7287 15.6425C18.3138 16.2289 18.3127 17.1787 17.7262 17.7638C17.1397 18.3489 16.19 18.3478 15.6049 17.7613L9.91739 12.0605C9.33229 11.4741 9.3334 10.5243 9.91986 9.93921ZM17.7287 52.509C18.3138 51.9226 18.3127 50.9728 17.7262 50.3877C17.1397 49.8026 16.19 49.8037 15.6049 50.3902L9.91739 56.091C9.33229 56.6775 9.3334 57.6272 9.91986 58.2123C10.5063 58.7974 11.4561 58.7963 12.0412 58.2098L17.7287 52.509ZM58.0804 9.93921C58.6668 10.5243 58.6679 11.4741 58.0828 12.0605L52.3953 17.7613C51.8102 18.3478 50.8605 18.3489 50.274 17.7638C49.6875 17.1787 49.6864 16.2289 50.2715 15.6425L55.959 9.94168C56.5441 9.35519 57.4939 9.3541 58.0804 9.93921ZM26.4889 60.1672C24.3665 60.1672 22.8977 61.9038 22.8977 63.913V68.7254C22.8977 69.7999 23.1995 70.8105 23.8503 71.5794C24.5161 72.3658 25.4617 72.792 26.4889 72.792H27.4893C28.8755 74.6532 30.8999 76.0002 33.3599 76.0002C35.7615 76.0002 37.8068 74.7082 39.025 72.792H39.9321C41.0115 72.792 42.038 72.4346 42.7849 71.6324C43.5191 70.8439 43.822 69.7993 43.822 68.7254V63.913C43.822 61.9038 42.3532 60.1672 40.2308 60.1672H26.4889ZM25.8977 63.913C25.8977 63.6239 25.9958 63.4355 26.093 63.3311C26.1855 63.2317 26.312 63.1672 26.4889 63.1672H40.2308C40.4077 63.1672 40.5342 63.2317 40.6267 63.3311C40.7239 63.4355 40.822 63.6239 40.822 63.913V68.7254C40.822 69.2556 40.6767 69.4942 40.5894 69.588C40.5148 69.6681 40.3463 69.792 39.9321 69.792H38.1396C37.5564 69.792 37.026 70.1301 36.7798 70.6588C36.097 72.1255 34.7938 73.0002 33.3599 73.0002C31.9402 73.0002 30.5686 72.1325 29.5557 70.5008C29.2821 70.0601 28.8001 69.792 28.2813 69.792H26.4889C26.3211 69.792 26.2212 69.7369 26.1401 69.6411C26.0441 69.5277 25.8977 69.255 25.8977 68.7254V63.913Z" fill="#FFE195"/>
</svg>
