<svg width="18" height="18" viewBox="0 0 18 18" fill="none" xmlns="http://www.w3.org/2000/svg">
<path fill-rule="evenodd" clip-rule="evenodd" d="M17.7105 1.68737C18.0965 1.30135 18.0965 0.675529 17.7105 0.289513C17.3245 -0.096489 16.6986 -0.096489 16.3126 0.289513L9.00002 7.60213L1.6874 0.289513C1.30141 -0.0965042 0.67556 -0.0965042 0.289574 0.289513C-0.0964432 0.675514 -0.0964432 1.30135 0.289574 1.68736L7.60217 8.99998L0.289513 16.3127C-0.0965042 16.6987 -0.0965042 17.3245 0.289513 17.7105C0.675499 18.0965 1.30135 18.0965 1.68734 17.7105L9.00002 10.3978L16.3127 17.7105C16.6987 18.0965 17.3245 18.0965 17.7105 17.7105C18.0965 17.3245 18.0965 16.6987 17.7105 16.3127L10.3979 8.99998L17.7105 1.68737Z" fill="white"/>
</svg>
