<svg width="61" height="63" viewBox="0 0 61 63" fill="none" xmlns="http://www.w3.org/2000/svg">
<path fill-rule="evenodd" clip-rule="evenodd" d="M17.4116 0.221405L24.337 2.35187L23.2551 7.03889C23.5093 7.22194 23.7552 7.41773 23.9891 7.63139L28.418 5.68302L32.1124 12.015L27.8711 14.7805C27.8959 15.0595 27.9096 15.3328 27.9172 15.5969L32.4464 17.4082L30.3186 24.3223L25.5714 23.2675C25.409 23.5188 25.2294 23.7563 25.0324 23.979L27.0006 28.4513L20.6513 31.8898L17.906 27.8643C17.6194 27.8904 17.3387 27.9046 17.0677 27.9123L15.256 32.4405L8.37745 30.3245L9.27728 25.6463C9.01164 25.4566 8.75475 25.2533 8.51091 25.0305L4.04365 26.9958L0.591283 20.6234L4.7965 17.8814C4.77171 17.6024 4.75801 17.3292 4.75044 17.065L0.221191 15.2537L2.33519 8.38456L7.14954 9.27593C7.29628 9.07161 7.45725 8.87099 7.63284 8.67756L5.667 4.21064L12.0163 0.772098L14.7616 4.79761C15.0482 4.77158 15.3289 4.75737 15.5999 4.74962L17.4116 0.221405ZM19.1119 3.7786L17.5669 7.64034H16.5853C15.7246 7.64034 15.0296 7.6449 14.3549 7.77981L13.4135 7.96805L11.0954 4.56881L9.39767 5.48823L11.1673 9.50929L10.2463 10.1999C9.78734 10.544 9.41832 11.0245 9.1645 11.5321L8.67648 12.5079L4.34712 11.7064L3.77877 13.5531L7.64116 15.0978V16.0795C7.64116 16.9401 7.64572 17.6349 7.78064 18.3093L7.97323 19.2721L4.41456 21.5925L5.32102 23.2656L9.34292 21.4963L10.0334 22.4168C10.3709 22.8667 10.8553 23.2542 11.6312 23.7196L12.5007 24.2412L11.7166 28.3176L13.5557 28.8833L15.1007 25.0216H16.0823C16.943 25.0216 17.6381 25.017 18.3127 24.8821L19.2541 24.6939L21.5722 28.0931L23.2699 27.1737L21.5003 23.1526L22.4213 22.4621C22.8627 22.1311 23.2093 21.6831 23.4537 21.0722L23.9115 19.928L28.3343 20.9107L28.8888 19.1088L25.0265 17.5642V16.5824C25.0265 15.7219 25.0219 15.027 24.887 14.3526L24.6944 13.3898L28.217 11.093L27.2172 9.37948L23.157 11.1656L22.4665 10.2451C22.129 9.79522 21.6447 9.40774 20.8688 8.9423L19.9647 8.39998L20.9042 4.32995L19.1119 3.7786ZM13.6653 11.4986C14.9098 10.8142 16.367 10.7499 17.8218 11.1654C19.283 11.5829 20.481 12.4161 21.1668 13.6626C21.8514 14.9071 21.9157 16.3642 21.5001 17.8189C21.0825 19.28 20.249 20.4778 19.0023 21.1633C17.7578 21.8477 16.3006 21.9121 14.8458 21.4965C13.3846 21.0791 12.1866 20.2458 11.5009 18.9993C10.8162 17.7548 10.7519 16.2977 11.1676 14.8431C11.5851 13.3819 12.4186 12.1841 13.6653 11.4986ZM15.0626 14.0398C14.6328 14.2761 14.209 14.7545 13.9559 15.6399C13.701 16.5319 13.8043 17.1699 14.0418 17.6015C14.2781 18.0312 14.7566 18.455 15.6424 18.708C16.5347 18.9629 17.1731 18.8597 17.605 18.6222C18.0348 18.3858 18.4586 17.9075 18.7117 17.022C18.9666 16.1301 18.8633 15.492 18.6259 15.0604C18.3895 14.6308 17.911 14.2069 17.0252 13.9539C16.1329 13.699 15.4945 13.8023 15.0626 14.0398ZM41.8752 22.0246L50.1203 24.4492L48.8817 30.6413C49.2938 30.9206 49.7283 31.246 50.1356 31.6176L55.9687 29.1434L60.0727 36.867L54.7823 40.2169C54.8648 40.7254 54.8971 41.2257 54.9097 41.7115L60.7754 43.8441L58.3401 52.1223L52.1468 50.8839C51.8675 51.2959 51.5421 51.7303 51.1704 52.1375L53.6383 57.9534L46.0976 62.0878L42.7375 56.7834C42.2188 56.8675 41.7085 56.8994 41.2135 56.9115L38.9071 62.7652L30.662 60.3406L31.9007 54.1485C31.4885 53.8691 31.054 53.5438 30.6467 53.1722L24.8298 55.6395L20.6944 48.1L26 44.7405C25.916 44.2221 25.884 43.7121 25.8719 43.2174L20.017 40.9114L22.4422 32.6674L28.6355 33.9059C28.9149 33.4939 29.2402 33.0595 29.6119 32.6522L27.1441 26.8364L34.6847 22.702L38.0448 28.0063C38.5635 27.9223 39.0738 27.8903 39.5688 27.8783L41.8752 22.0246ZM43.6012 25.5549L41.546 30.771H40.5588C39.343 30.771 38.5772 30.7835 37.832 31.0319L36.7557 31.3906L33.6917 26.5537L30.8383 28.1182L33.1025 33.4542L32.2439 34.1409C31.624 34.6367 31.0645 35.4444 30.5697 36.2689L30.044 37.1449L24.4754 36.0314L23.5477 39.1852L28.7647 41.24V42.2273C28.7647 43.4429 28.7772 44.2084 29.0255 44.9533L29.3845 46.0299L24.5467 49.0932L26.1114 51.9458L31.4485 49.682L32.1351 50.5401C32.631 51.1599 33.4389 51.7193 34.2635 52.214L35.1399 52.7397L34.0262 58.3071L37.1811 59.2348L39.2363 54.0187H40.2235C41.4394 54.0187 42.2051 54.0063 42.9504 53.7579L44.0266 53.3992L47.0906 58.2361L49.9441 56.6716L47.6799 51.3356L48.5384 50.6489C49.1583 50.153 49.7178 49.3454 50.2126 48.5209L50.7383 47.6449L56.3069 48.7583L57.2246 45.6389L52.0176 43.7458V42.7301C52.0176 41.5145 52.0051 40.749 51.7568 40.0041L51.3978 38.9275L56.2508 35.8546L54.6547 32.8509L49.3338 35.1078L48.6472 34.2497C48.1513 33.6299 47.3434 33.0705 46.5188 32.5758L45.6424 32.0501L46.7561 26.4827L43.6012 25.5549ZM32.4621 39.9727C33.6917 35.528 38.3582 32.882 42.8425 34.3086C47.2662 35.7158 49.7118 40.3483 48.4936 44.6286C47.2755 49.0764 42.6188 51.731 38.1363 50.3227C33.7008 49.0961 31.0555 44.448 32.4621 39.9727ZM41.9634 37.0721C39.081 36.1552 36.0463 37.8525 35.2518 40.7651L35.2438 40.7944L35.2346 40.8232C34.3178 43.7043 36.0148 46.7384 38.9285 47.5329L38.9577 47.5409L38.9866 47.5501C41.8689 48.467 44.9036 46.7697 45.6982 43.857L45.7005 43.8486L45.7029 43.8402C46.4908 41.083 44.9132 38.0105 41.9634 37.0721Z" fill="#FFE195"/>
</svg>
