<svg width="30" height="30" viewBox="0 0 30 30" fill="none" xmlns="http://www.w3.org/2000/svg">
<path d="M15.1 13.5C15.1 12.4 14.7 7.6 14.7 7.4C14.6 7.2 14.5 7.1 14.3 7C13.6 6.8 11 7.6 10.5 8.1C10.3 8.3 10.3 8.5 10.3 8.6C10.4 8.8 13.6 13.9 13.6 13.9C14.1 14.7 14.5 14.6 14.6 14.5C14.7 14.6 15.1 14.5 15.1 13.5ZM17.8 15.8C20.5 15.1 20.6 15.1 20.7 15C20.9 14.9 20.9 14.7 20.9 14.5C20.8 13.8 19.7 12.1 19.1 11.8C18.9 11.7 18.7 11.7 18.5 11.8C18.4 11.9 18.3 12 16.9 14C16.9 14 16.3 14.9 16.2 14.9C16 15.1 16 15.4 16.2 15.7C16.4 16 16.7 16.1 16.9 16C17.1 16 17.4 15.9 17.8 15.8ZM19 21.8C19.6 21.6 20.9 19.9 21 19.2C21 19 21 18.8 20.8 18.7C20.7 18.6 20.6 18.6 18.3 17.8C18.3 17.8 17.3 17.5 17.3 17.4C17 17.3 16.8 17.4 16.6 17.6C16.4 17.8 16.4 18.2 16.5 18.4L16.9 19.1C18.3 21.4 18.4 21.6 18.5 21.7C18.6 21.8 18.8 21.8 19 21.8ZM15 22.6C15 22.5 15 22.4 15.1 19.9V18.8C15.1 18.5 14.9 18.3 14.7 18.2C14.4 18.1 14.1 18.2 13.9 18.4L13.4 19C11.6 21.1 11.5 21.2 11.5 21.3C11.5 21.4 11.5 21.5 11.5 21.5C11.5 21.6 11.6 21.7 11.6 21.8C12 22.3 14 23 14.6 22.9C14.8 22.9 14.9 22.8 15 22.6ZM9.3 14.7C9 15.1 8.9 16.4 9 17.3C9 17.6 9.1 17.8 9.2 18C9.3 18.2 9.5 18.3 9.7 18.3C9.8 18.3 9.9 18.3 12.3 17.5L13.4 17.2C13.7 17.1 13.8 16.9 13.9 16.6C13.9 16.3 13.8 16 13.5 15.9L12.8 15.6C10.3 14.5 10.1 14.5 10 14.5C9.6 14.4 9.4 14.5 9.3 14.7ZM15 0C23.3 0 30 6.7 30 15C30 23.3 23.3 30 15 30C6.7 30 0 23.3 0 15C0 6.7 6.7 0 15 0Z" fill="white"/>
</svg>
