<svg width="20" height="20" viewBox="0 0 20 20" fill="none" xmlns="http://www.w3.org/2000/svg">
<path fill-rule="evenodd" clip-rule="evenodd" d="M3 0H17C18.7 0 20 1.3 20 3V17C20 18.7 18.7 20 17 20H3C1.3 20 0 18.7 0 17V3C0 1.3 1.3 0 3 0Z" fill="#238CC8"/>
<path fill-rule="evenodd" clip-rule="evenodd" d="M13.2 7.4C11.8 7.4 10.9 8.1 10.5 8.6L10.3 7.8H8.2V16H10.5V11C10.5 10.7 10.5 10.5 10.6 10.4C10.8 10 11.4 9.5 12.1 9.5C13 9.5 13.6 10.2 13.6 11.3V16H15.9V10.9C16 8.4 14.8 7.4 13.2 7.4ZM4.3 15.8H6.60001V7.6H4.3V15.8ZM5.5 4C4.6 4 4 4.5 4 5.3C4 6.1 4.6 6.6 5.5 6.6C6.4 6.6 7 6.1 7 5.3C6.8 4.5 6.3 4 5.5 4Z" fill="white"/>
</svg>
