<svg width="14" height="14" viewBox="0 0 14 14" fill="none" xmlns="http://www.w3.org/2000/svg">
<path d="M8 6.47383V10.9434C7.89744 10.9661 7.78803 10.9811 7.6718 10.9887C7.56239 10.9962 7.44957 11 7.33333 11C7.21709 11 7.10085 10.9962 6.98462 10.9887C6.87521 10.9811 6.76581 10.9661 6.65641 10.9434V7.00566C6.65641 6.59076 6.50256 6.38331 6.19487 6.38331H6.06154C6.02051 6.21735 6 6.04385 6 5.8628C6 5.69684 6.02051 5.52334 6.06154 5.34229C6.2188 5.3272 6.36239 5.31589 6.49231 5.30835C6.62906 5.29326 6.7453 5.28571 6.84103 5.28571H7.01538C7.32308 5.28571 7.56239 5.39133 7.73333 5.60255C7.91111 5.81377 8 6.1042 8 6.47383ZM6.45128 3.1471C6.60855 3.04903 6.83419 3 7.12821 3C7.29915 3 7.4359 3.01509 7.53846 3.04526C7.64786 3.07544 7.7265 3.11315 7.77436 3.15842C7.82222 3.19613 7.85299 3.27157 7.86667 3.38472C7.88034 3.49788 7.88718 3.6148 7.88718 3.7355C7.86667 4.12023 7.82222 4.33145 7.75385 4.36917C7.69231 4.40688 7.48034 4.4446 7.11795 4.48232C6.73504 4.46723 6.5094 4.41066 6.44103 4.31259C6.37949 4.21452 6.34872 4.02216 6.34872 3.7355C6.34872 3.51674 6.38291 3.3206 6.45128 3.1471Z" fill="#FFE195"/>
<rect x="0.5" y="0.5" width="13" height="13" rx="6.5" stroke="#FFE195"/>
</svg>
