<svg width="45" height="67" viewBox="0 0 45 67" fill="none" xmlns="http://www.w3.org/2000/svg">
<path fill-rule="evenodd" clip-rule="evenodd" d="M41.0162 1.04354C41.0159 1.04275 41.0157 1.04205 39.5874 1.50009L41.0157 1.04205C40.7945 0.352016 40.1115 -0.0811811 39.3929 0.012752C29.6878 1.28134 23.9534 4.89828 20.6934 7.98223C20.0916 8.55157 20.0653 9.50094 20.6346 10.1027C21.2039 10.7046 22.1533 10.7309 22.7551 10.1616C25.417 7.64343 30.2077 4.49597 38.4921 3.17437C38.6598 3.84991 38.8658 4.77548 39.0513 5.87851C39.4576 8.29406 39.7564 11.5088 39.3682 14.792C38.98 18.0749 37.9161 21.3394 35.6745 23.9661C33.4533 26.5689 29.9581 28.684 24.435 29.4843C23.6151 29.6031 23.0468 30.364 23.1656 31.1839C23.2844 32.0037 24.0453 32.5721 24.8652 32.4533C30.9942 31.5652 35.1922 29.1526 37.9565 25.9135C40.7004 22.6983 41.9143 18.8067 42.3474 15.1444C42.7804 11.4826 42.4441 7.96319 42.0098 5.38095C41.7918 4.08453 41.5468 3.01129 41.355 2.25784C41.2591 1.88082 41.1762 1.5831 41.1164 1.37661C41.0865 1.27337 41.0624 1.19287 41.0452 1.13662L41.0248 1.07061L41.0188 1.0516L41.0169 1.04562L41.0162 1.04354ZM4.05687 3.60177C3.62189 3.52917 3.17699 3.65164 2.84047 3.93664C2.61487 4.12771 2.4533 4.37881 2.37128 4.65646L2.35724 4.70037L2.33348 4.77529C2.32015 4.81756 2.30431 4.86825 2.28632 4.92688C2.22576 5.12417 2.14165 5.40817 2.0446 5.76687C1.85076 6.48342 1.60475 7.50009 1.39142 8.72195C0.96709 11.1523 0.66048 14.4588 1.19223 17.8542C1.72585 21.2615 3.11705 24.828 6.14548 27.6415C9.17212 30.4532 13.6764 32.3664 20.1578 32.7706C20.349 32.7872 20.5466 32.7671 20.741 32.7054C20.7519 32.7019 20.7626 32.6984 20.7733 32.6947C20.8065 32.6833 20.8393 32.6708 20.8716 32.6571C21.106 32.5579 21.3144 32.3995 21.4739 32.193C21.4941 32.1669 21.5134 32.1401 21.532 32.1125C21.5349 32.1082 21.5377 32.1039 21.5406 32.0996L21.5495 32.0861C21.5587 32.0721 21.5712 32.0531 21.5866 32.0291C21.6176 31.9812 21.6608 31.9134 21.7143 31.8269C21.8213 31.654 21.9699 31.4058 22.1455 31.0915C22.4961 30.4639 22.9571 29.5672 23.4082 28.475C23.884 27.3233 24.3596 25.9288 24.6768 24.3855C24.7051 24.3242 24.7296 24.2603 24.7499 24.1938C25.9327 20.3273 28.1686 17.6336 30.1243 15.8983C31.1016 15.0312 32.0019 14.41 32.6505 14.0092C32.9744 13.8091 33.234 13.6649 33.4072 13.5732C33.4314 13.5604 33.4538 13.5486 33.4746 13.5379C33.4922 13.5288 33.5085 13.5204 33.5235 13.5127C33.5447 13.5019 33.5634 13.4925 33.5793 13.4846L33.5987 13.475C33.6188 13.4651 33.6328 13.4584 33.6402 13.4549L33.6427 13.4537L33.017 12.0904C33.6427 13.4537 33.6432 13.4535 33.6437 13.4532L33.6446 13.4528L33.6458 13.4522L33.6463 13.452C34.3967 13.1053 34.7253 12.2165 34.3803 11.4647C34.0348 10.7118 33.1444 10.3816 32.3914 10.7271L33.017 12.0904C32.3914 10.7271 32.3908 10.7274 32.3902 10.7276L32.3889 10.7283L32.3857 10.7297L32.3773 10.7336L32.3528 10.7452C32.3331 10.7545 32.3067 10.7673 32.2739 10.7834C32.2083 10.8157 32.1173 10.8616 32.0037 10.9217C31.7767 11.0419 31.4588 11.2191 31.0737 11.457C30.3043 11.9324 29.2605 12.6541 28.1332 13.6543C27.012 14.6491 25.8014 15.9259 24.6975 17.515C24.1226 14.9946 22.7995 12.4631 20.3186 10.2199C17.0493 7.26391 11.8805 4.90792 4.05687 3.60177ZM20.4769 27.7038C20.5297 27.5822 20.5827 27.4574 20.6355 27.3296C21.4392 25.3841 22.1715 22.8209 22.0419 20.1703C21.9148 17.5684 20.96 14.8443 18.3066 12.4452C15.7743 10.1555 11.5987 8.07611 4.87551 6.79516C4.71245 7.42096 4.51818 8.25589 4.34671 9.23791C3.95458 11.4839 3.69333 14.4351 4.15612 17.39C4.61704 20.3331 5.78275 23.2097 8.18735 25.4436C10.2551 27.3646 13.3563 28.9193 18.0094 29.5488C17.7356 28.9093 17.3897 28.1441 16.9635 27.2731C15.589 24.4649 13.381 20.5612 10.0617 16.2253C9.55814 15.5676 9.68315 14.6261 10.341 14.1225C10.9988 13.6189 11.9402 13.744 12.4438 14.4018C15.9002 18.9168 18.2093 22.9942 19.658 25.9543C19.9698 26.5912 20.2418 27.1766 20.4769 27.7038Z" fill="#FFE195"/>
<path fill-rule="evenodd" clip-rule="evenodd" d="M3.55323 36.2036C3.24769 36.2036 3 36.4576 3 36.75C3 37.0372 3.23894 37.2874 3.53694 37.2962C3.55353 37.296 3.57008 37.2961 3.58658 37.2964H13.1521C13.9805 37.2964 14.6521 37.968 14.6521 38.7964C14.6521 39.6249 13.9805 40.2964 13.1521 40.2964H5.42229L10.5067 63.219C10.6112 63.6396 10.9505 63.9001 11.3554 63.9001H32.1444C32.5493 63.9001 32.8886 63.6396 32.9931 63.219L38.0775 40.2964H33.3764C32.548 40.2964 31.8764 39.6248 31.8764 38.7964C31.8764 37.968 32.548 37.2964 33.3764 37.2964H39.9151C39.931 37.2961 39.947 37.296 39.963 37.2962C40.261 37.2874 40.5 37.0372 40.5 36.75C40.5 36.4576 40.2523 36.2036 39.9468 36.2036H3.55323ZM0 36.75C0 38.2664 0.959165 39.5605 2.29862 40.0676L7.5811 63.8831L7.58656 63.9068C7.9981 65.6296 9.50475 66.9001 11.3554 66.9001H32.1444C33.995 66.9001 35.5017 65.6295 35.9132 63.9068L35.9187 63.8831L41.2011 40.0677C42.5407 39.5607 43.5 38.2665 43.5 36.75C43.5 34.7913 41.8998 33.2036 39.9468 33.2036H3.55323C1.60022 33.2036 0 34.7913 0 36.75Z" fill="#FFE195"/>
<path fill-rule="evenodd" clip-rule="evenodd" d="M4.55324 36.2036C4.2477 36.2036 4 36.4576 4 36.75C4 37.0373 4.23914 37.2875 4.53731 37.2962C4.54623 37.2961 4.55518 37.2961 4.5641 37.2961C4.57146 37.2962 4.57881 37.2963 4.58615 37.2964H14.1521C14.9805 37.2964 15.6521 37.968 15.6521 38.7964C15.6521 39.6248 14.9805 40.2964 14.1521 40.2964H6.42229L11.5067 63.219C11.6112 63.6396 11.9505 63.9001 12.3554 63.9001H33.1444C33.5493 63.9001 33.8886 63.6396 33.9931 63.219L39.0775 40.2964H34.3764C33.548 40.2964 32.8764 39.6248 32.8764 38.7964C32.8764 37.968 33.548 37.2964 34.3764 37.2964H40.9166C40.9319 37.2961 40.9473 37.296 40.9626 37.2962C41.2608 37.2876 41.5 37.0374 41.5 36.75C41.5 36.4576 41.2523 36.2036 40.9468 36.2036H4.55324ZM1 36.75C1 38.2664 1.95917 39.5605 3.29863 40.0676L8.5811 63.8831L8.58656 63.9068C8.99811 65.6295 10.5047 66.9001 12.3554 66.9001H33.1444C34.995 66.9001 36.5017 65.6295 36.9132 63.9068L36.9187 63.8831L42.2011 40.0677C43.5407 39.5607 44.5 38.2665 44.5 36.75C44.5 34.7914 42.8998 33.2036 40.9468 33.2036H4.55324C2.60022 33.2036 1 34.7914 1 36.75Z" fill="#FFE195"/>
</svg>
