<svg width="45" height="57" viewBox="0 0 45 57" fill="none" xmlns="http://www.w3.org/2000/svg">
<path fill-rule="evenodd" clip-rule="evenodd" d="M39.5764 0H0V52.6203H4.38904V57.0001H44.0142V4.3316H39.5764V0ZM39.5764 7.3316V52.6203H7.38904V54.0001H41.0142V7.3316H39.5764ZM3 49.6203V3H36.5764V49.6203H3ZM4.38904 4.3316H19.9713V19.7487H4.38904V4.3316ZM7.38904 7.3316V16.7487H16.9713V7.3316H7.38904ZM5.20636 24.1765H34.2724V21.1765H5.20636V24.1765ZM34.2724 28.7487H5.20636V25.7487H34.2724V28.7487ZM5.20636 33.3209H34.2724V30.3209H5.20636V33.3209ZM34.2725 7.3316H22.4705V4.3316H34.2725V7.3316ZM22.4705 11.9037H34.2725V8.90375H22.4705V11.9037ZM34.2724 37.8449H5.20636V34.8449H34.2724V37.8449ZM34.2724 45.0481H24.2261V48.0481H34.2724V45.0481Z" fill="#FFE195"/>
</svg>
