<svg width="30" height="30" viewBox="0 0 30 30" fill="none" xmlns="http://www.w3.org/2000/svg">
<path d="M21.1 12.3C21.7 11.9 22.2 11.4 22.6 10.8C22.1 11 21.5 11.2 20.9 11.3C21.5 10.9 22 10.4 22.2 9.7C21.6 10 21 10.3 20.3 10.4C19.8 9.8 19 9.5 18.1 9.5C16.5 9.5 15.1 10.8 15.1 12.5C15.1 12.7 15.1 13 15.2 13.2C12.7 13.1 10.6 11.9 9.1 10.1C8.8 10.5 8.7 11 8.7 11.6C8.7 12.6 9.2 13.5 10 14.1C9.5 14.1 9.1 14 8.7 13.7C8.7 15.1 9.7 16.3 11.1 16.6C10.9 16.7 10.6 16.7 10.3 16.7C10.1 16.7 9.9 16.7 9.7 16.6C10.1 17.8 11.2 18.6 12.5 18.7C11.5 19.5 10.2 20 8.8 20C8.6 20 8.3 20 8.1 20C9.4 20.8 11 21.3 12.6 21.3C18 21.3 21 16.8 21 12.9C21.1 12.5 21.1 12.4 21.1 12.3ZM15 0C23.3 0 30 6.7 30 15C30 23.3 23.3 30 15 30C6.7 30 0 23.3 0 15C0 6.7 6.7 0 15 0Z" fill="white"/>
</svg>
