<svg width="30" height="30" viewBox="0 0 30 30" fill="none" xmlns="http://www.w3.org/2000/svg">
<path fill-rule="evenodd" clip-rule="evenodd" d="M13.7 17.2V12.4L18.3 14.8L13.7 17.2ZM23.8 11.6C23.8 11.6 23.6 10.4 23.1 9.9C22.5 9.2 21.7 9.2 21.4 9.2C19 9 15.5 9 15.5 9C15.5 9 11.9 9 9.6 9.2C9.3 9.2 8.5 9.2 7.9 9.9C7.4 10.4 7.2 11.6 7.2 11.6C7.2 11.6 7 13 7 14.3V15.6C7 17 7.2 18.4 7.2 18.4C7.2 18.4 7.4 19.6 7.9 20.1C8.5 20.8 9.4 20.8 9.8 20.8C11.2 20.9 15.6 21 15.6 21C15.6 21 19.2 21 21.5 20.8C21.8 20.8 22.6 20.8 23.2 20.1C23.7 19.6 23.9 18.4 23.9 18.4C23.9 18.4 24.1 17 24.1 15.6V14.3C23.9 13 23.8 11.6 23.8 11.6ZM0 15C0 6.7 6.7 0 15 0C23.3 0 30 6.7 30 15C30 23.3 23.3 30 15 30C6.7 30 0 23.3 0 15Z" fill="white"/>
</svg>
