<svg xmlns="http://www.w3.org/2000/svg" width="71" height="45" fill="none" viewBox="0 0 71 45">
  <path stroke="#FFE195" stroke-linecap="round" stroke-linejoin="round" stroke-miterlimit="10" stroke-width="3" d="M31 7h39v12H47L25 2 2 19"/>
  <path stroke="#FFE195" stroke-linecap="round" stroke-linejoin="round" stroke-miterlimit="10" stroke-width="3" d="M54 2h-4v5h4V2zM6 16v27h61V19"/>
  <path stroke="#FFE195" stroke-linecap="round" stroke-linejoin="round" stroke-miterlimit="10" stroke-width="3" d="M37 23h-3c-2 0-3 1-3 3v17h9V26c0-2-1-3-3-3z"/>
  <path stroke="#FFE195" stroke-miterlimit="10" stroke-width="3" d="M59 27H48v10h11V27zM34 32v2"/>
  <path stroke="#FFE195" stroke-linecap="round" stroke-linejoin="round" stroke-miterlimit="10" stroke-width="3" d="M54 32v-5M48 32h11"/>
  <path stroke="#FFE195" stroke-miterlimit="10" stroke-width="3" d="M24 27H13v10h11V27z"/>
  <path stroke="#FFE195" stroke-linecap="round" stroke-linejoin="round" stroke-miterlimit="10" stroke-width="3" d="M18 32v-5M13 32h11"/>
</svg>
