<svg width="27" height="20" viewBox="0 0 27 20" fill="none" xmlns="http://www.w3.org/2000/svg">
<path fill-rule="evenodd" clip-rule="evenodd" d="M3 0H24C25.7 0 27 1.3 27 3V17C27 18.7 25.7 20 24 20H3C1.3 20 0 18.7 0 17V3C0 1.3 1.3 0 3 0Z" fill="#EB5E4C"/>
<path fill-rule="evenodd" clip-rule="evenodd" d="M10.4001 15.6C7.50009 15.6 5.1001 13.2 5.1001 10.3C5.1001 7.4 7.50009 5 10.4001 5C11.9001 5 13.0001 5.5 14.0001 6.4L12.5001 7.8C12.1001 7.4 11.4001 7 10.4001 7C8.60009 7 7.1001 8.5 7.1001 10.3C7.1001 12.2 8.60009 13.6 10.4001 13.6C12.5001 13.6 13.3001 12.1 13.4001 11.3H10.4001V9.6H15.4001C15.5001 9.8 15.5001 10.2 15.5001 10.5C15.4001 13.5 13.4001 15.6 10.4001 15.6Z" fill="white"/>
<path fill-rule="evenodd" clip-rule="evenodd" d="M21.8998 11.1H20.3998V12.6H18.8998V11.1H17.2998V9.59998H18.8998V8.09998H20.3998V9.59998H21.8998V11.1Z" fill="white"/>
</svg>
