<svg width="67" height="20" viewBox="0 0 67 20" fill="none" xmlns="http://www.w3.org/2000/svg">
<path fill-rule="evenodd" clip-rule="evenodd" d="M3 0H64C65.7 0 67 1.3 67 3V17C67 18.7 65.7 20 64 20H3C1.3 20 0 18.7 0 17V3C0 1.3 1.3 0 3 0Z" fill="#4065B4"/>
<path fill-rule="evenodd" clip-rule="evenodd" d="M5 9C5 13.3 5 15.4 5 15.4H8V9C6 9 5 9 5 9Z" fill="white"/>
<path fill-rule="evenodd" clip-rule="evenodd" d="M9 14.8L9.1 14.9C9.2 14.9 9.3 15 9.4 15.1C9.9 15.5 10.5 15.5 10.5 15.5H15.7C16.2 15.5 16.5 15.1 16.5 14.6C16.5 14.5 16.5 14.3 16.4 14.2L16.2 13.8L16.6 13.7C17 13.6 17.4 13.2 17.4 12.8C17.4 12.6 17.3 12.4 17.2 12.2L17 11.8L17.4 11.7C17.8 11.6 18 11.2 18 10.8C18 10.5 17.8 10.2 17.5 9.99998L17.1 9.79998L17.5 9.49998C17.7 9.29998 17.9 9.09998 17.9 8.79998C17.9 8.59998 17.8 8.29998 17.6 8.19998C17.4 7.99998 17.2 7.89998 16.9 7.89998H12.9L13.2 5.79998C13.2 5.69998 13.2 5.49998 13.2 5.39998C13.2 4.29998 12.5 3.09998 11.7 3.09998C11.6 3.09998 11.4 3.09998 11.3 3.19998L11.4 5.09998C11.4 5.29998 11.4 5.39998 11.4 5.59998C11.4 5.79998 11.3 5.89998 11.2 5.99998L9.5 9.39998L9 9.89998V14.8Z" fill="white"/>
<path d="M25.7617 6.30273H27.2656V12.2061H30.8301V13.5H25.7617V6.30273ZM33.1934 7.54297H31.7822V6.25879H33.1934V7.54297ZM31.7822 8.17773H33.1934V13.5H31.7822V8.17773ZM34.5312 6.32715H35.8984V10.2041L37.6318 8.20215H39.3555L37.4951 10.2383L39.4287 13.5H37.749L36.4746 11.2246L35.8984 11.8252V13.5H34.5312V6.32715ZM42.2119 9.18359C41.8896 9.18359 41.639 9.28451 41.46 9.48633C41.2842 9.68815 41.1735 9.96159 41.1279 10.3066H43.291C43.2682 9.9388 43.1559 9.66048 42.9541 9.47168C42.7555 9.27962 42.5081 9.18359 42.2119 9.18359ZM42.2119 8.03613C42.6546 8.03613 43.0534 8.11914 43.4082 8.28516C43.763 8.45117 44.056 8.71322 44.2871 9.07129C44.4954 9.38704 44.6305 9.75326 44.6924 10.1699C44.7282 10.4141 44.7428 10.7656 44.7363 11.2246H41.0938C41.1133 11.7585 41.2809 12.1328 41.5967 12.3477C41.7887 12.4811 42.0199 12.5479 42.29 12.5479C42.5765 12.5479 42.8092 12.4665 42.9883 12.3037C43.0859 12.2158 43.1722 12.0938 43.2471 11.9375H44.668C44.6322 12.2533 44.4678 12.5739 44.1748 12.8994C43.7191 13.417 43.0811 13.6758 42.2607 13.6758C41.5837 13.6758 40.9863 13.4577 40.4688 13.0215C39.9512 12.5853 39.6924 11.8757 39.6924 10.8926C39.6924 9.97135 39.9251 9.26497 40.3906 8.77344C40.8594 8.2819 41.4665 8.03613 42.2119 8.03613Z" fill="white"/>
<path d="M49.6934 8.61719V7.66992C50.1328 7.65039 50.4404 7.62109 50.6162 7.58203C50.8962 7.52018 51.124 7.39648 51.2998 7.21094C51.4202 7.08398 51.5114 6.91471 51.5732 6.70312C51.609 6.57617 51.627 6.48177 51.627 6.41992H52.7842V13.5H51.3584V8.61719H49.6934ZM56.2998 10.0283C56.2998 10.8421 56.3665 11.4655 56.5 11.8984C56.6335 12.3281 56.9069 12.543 57.3203 12.543C57.7337 12.543 58.0039 12.3281 58.1309 11.8984C58.2611 11.4655 58.3262 10.8421 58.3262 10.0283C58.3262 9.17546 58.2611 8.54395 58.1309 8.13379C58.0039 7.72363 57.7337 7.51855 57.3203 7.51855C56.9069 7.51855 56.6335 7.72363 56.5 8.13379C56.3665 8.54395 56.2998 9.17546 56.2998 10.0283ZM57.3203 6.37109C58.222 6.37109 58.8535 6.68848 59.2148 7.32324C59.5794 7.95801 59.7617 8.8597 59.7617 10.0283C59.7617 11.1969 59.5794 12.097 59.2148 12.7285C58.8535 13.36 58.222 13.6758 57.3203 13.6758C56.4186 13.6758 55.7855 13.36 55.4209 12.7285C55.0596 12.097 54.8789 11.1969 54.8789 10.0283C54.8789 8.8597 55.0596 7.95801 55.4209 7.32324C55.7855 6.68848 56.4186 6.37109 57.3203 6.37109Z" fill="white"/>
</svg>
