<svg width="41" height="20" viewBox="0 0 41 20" fill="none" xmlns="http://www.w3.org/2000/svg">
<path fill-rule="evenodd" clip-rule="evenodd" d="M3 0H38C39.7 0 41 1.3 41 3V17C41 18.7 39.7 20 38 20H3C1.3 20 0 18.7 0 17V3C0 1.3 1.3 0 3 0Z" fill="#4065B4"/>
<path d="M7.85059 11.2783C7.89616 11.6071 7.98568 11.8529 8.11914 12.0156C8.36328 12.3118 8.78158 12.46 9.37402 12.46C9.72884 12.46 10.0169 12.4209 10.2383 12.3428C10.6582 12.193 10.8682 11.9147 10.8682 11.5078C10.8682 11.2702 10.764 11.0863 10.5557 10.9561C10.3473 10.8291 10.0202 10.7168 9.57422 10.6191L8.8125 10.4482C8.0638 10.279 7.54622 10.0951 7.25977 9.89648C6.77474 9.56445 6.53223 9.04525 6.53223 8.33887C6.53223 7.69434 6.7666 7.15885 7.23535 6.73242C7.7041 6.30599 8.39258 6.09277 9.30078 6.09277C10.0592 6.09277 10.7054 6.2946 11.2393 6.69824C11.7764 7.09863 12.0579 7.68132 12.084 8.44629H10.6387C10.6126 8.01335 10.4238 7.70573 10.0723 7.52344C9.83789 7.40299 9.54655 7.34277 9.19824 7.34277C8.81087 7.34277 8.50163 7.4209 8.27051 7.57715C8.03939 7.7334 7.92383 7.9515 7.92383 8.23145C7.92383 8.48861 8.03776 8.68066 8.26562 8.80762C8.41211 8.89225 8.72461 8.99154 9.20312 9.10547L10.4434 9.40332C10.987 9.53353 11.3971 9.70768 11.6738 9.92578C12.1035 10.2643 12.3184 10.7542 12.3184 11.3955C12.3184 12.0531 12.0661 12.5999 11.5615 13.0361C11.0602 13.4691 10.3506 13.6855 9.43262 13.6855C8.49512 13.6855 7.75781 13.4723 7.2207 13.0459C6.68359 12.6162 6.41504 12.027 6.41504 11.2783H7.85059ZM16.2539 8.04102C16.5827 8.04102 16.8805 8.09798 17.1475 8.21191C17.4176 8.32585 17.639 8.5 17.8115 8.73438C17.958 8.93294 18.0475 9.13802 18.0801 9.34961C18.1126 9.55794 18.1289 9.89974 18.1289 10.375V13.5H16.708V10.2627C16.708 9.97624 16.6592 9.74512 16.5615 9.56934C16.4346 9.32194 16.1937 9.19824 15.8389 9.19824C15.471 9.19824 15.1911 9.32194 14.999 9.56934C14.8102 9.81348 14.7158 10.1634 14.7158 10.6191V13.5H13.3291V6.32715H14.7158V8.87109C14.9176 8.56185 15.1504 8.34701 15.4141 8.22656C15.681 8.10286 15.9609 8.04102 16.2539 8.04102ZM22.3672 10.9121C22.2793 10.9674 22.1898 11.013 22.0986 11.0488C22.0107 11.0814 21.8887 11.1123 21.7324 11.1416L21.4199 11.2002C21.127 11.2523 20.917 11.3158 20.79 11.3906C20.5752 11.5176 20.4678 11.7145 20.4678 11.9814C20.4678 12.2191 20.5329 12.3916 20.6631 12.499C20.7965 12.6032 20.9577 12.6553 21.1465 12.6553C21.446 12.6553 21.721 12.5674 21.9717 12.3916C22.2256 12.2158 22.3574 11.8952 22.3672 11.4297V10.9121ZM21.5225 10.2627C21.7796 10.2301 21.9635 10.1895 22.0742 10.1406C22.2728 10.056 22.3721 9.92415 22.3721 9.74512C22.3721 9.52702 22.2956 9.37728 22.1426 9.2959C21.9928 9.21126 21.7715 9.16895 21.4785 9.16895C21.1497 9.16895 20.917 9.25033 20.7803 9.41309C20.6826 9.53353 20.6175 9.69629 20.585 9.90137H19.2422C19.2715 9.43587 19.4017 9.05339 19.6328 8.75391C20.0007 8.28516 20.6322 8.05078 21.5273 8.05078C22.11 8.05078 22.6276 8.16634 23.0801 8.39746C23.5326 8.62858 23.7588 9.06478 23.7588 9.70605V12.1475C23.7588 12.3167 23.762 12.5218 23.7686 12.7627C23.7783 12.945 23.806 13.0687 23.8516 13.1338C23.8971 13.1989 23.9655 13.2526 24.0566 13.2949V13.5H22.543C22.5007 13.3926 22.4714 13.2917 22.4551 13.1973C22.4388 13.1029 22.4258 12.9954 22.416 12.875C22.224 13.0833 22.0026 13.2607 21.752 13.4072C21.4525 13.5798 21.1139 13.666 20.7363 13.666C20.2546 13.666 19.8558 13.5293 19.54 13.2559C19.2275 12.9792 19.0713 12.5885 19.0713 12.084C19.0713 11.4297 19.3236 10.9561 19.8281 10.6631C20.1048 10.5036 20.5117 10.3896 21.0488 10.3213L21.5225 10.2627ZM27.8896 8.05078C27.9157 8.05078 27.9368 8.05241 27.9531 8.05566C27.9727 8.05566 28.0133 8.05729 28.0752 8.06055V9.48633C27.9873 9.47656 27.9092 9.47005 27.8408 9.4668C27.7725 9.46354 27.7171 9.46191 27.6748 9.46191C27.1149 9.46191 26.7389 9.64421 26.5469 10.0088C26.4395 10.2139 26.3857 10.5296 26.3857 10.9561V13.5H24.9844V8.17773H26.3125V9.10547C26.5273 8.75065 26.7145 8.50814 26.874 8.37793C27.1344 8.15983 27.473 8.05078 27.8896 8.05078ZM30.9951 9.18359C30.6729 9.18359 30.4222 9.28451 30.2432 9.48633C30.0674 9.68815 29.9567 9.96159 29.9111 10.3066H32.0742C32.0514 9.9388 31.9391 9.66048 31.7373 9.47168C31.5387 9.27962 31.2913 9.18359 30.9951 9.18359ZM30.9951 8.03613C31.4378 8.03613 31.8366 8.11914 32.1914 8.28516C32.5462 8.45117 32.8392 8.71322 33.0703 9.07129C33.2786 9.38704 33.4137 9.75326 33.4756 10.1699C33.5114 10.4141 33.526 10.7656 33.5195 11.2246H29.877C29.8965 11.7585 30.0641 12.1328 30.3799 12.3477C30.5719 12.4811 30.8031 12.5479 31.0732 12.5479C31.3597 12.5479 31.5924 12.4665 31.7715 12.3037C31.8691 12.2158 31.9554 12.0938 32.0303 11.9375H33.4512C33.4154 12.2533 33.251 12.5739 32.958 12.8994C32.5023 13.417 31.8643 13.6758 31.0439 13.6758C30.3669 13.6758 29.7695 13.4577 29.252 13.0215C28.7344 12.5853 28.4756 11.8757 28.4756 10.8926C28.4756 9.97135 28.7083 9.26497 29.1738 8.77344C29.6426 8.2819 30.2497 8.03613 30.9951 8.03613Z" fill="white"/>
</svg>
