<svg width="80" height="80" viewBox="0 0 80 80" fill="none" xmlns="http://www.w3.org/2000/svg">
<path d="M0.000204154 39.9817C-0.0694456 18.145 17.6912 0 40.014 0C62.2323 0 80.4108 18.2146 79.9929 40.8175C79.575 62.6194 61.6054 80.2071 39.5961 79.9982C17.6912 79.7892 -0.0694456 61.9228 0.000204154 39.9817ZM76.5104 40.0513C76.6497 20.4784 60.8393 3.48272 39.9792 3.4479C19.7111 3.41307 3.69164 19.7122 3.41304 39.4941C3.16927 59.9028 19.5021 76.3761 39.6309 76.5503C60.3865 76.7244 76.5801 59.868 76.5104 40.0513Z" fill="white" fill-opacity="0.8"/>
<path d="M39.9792 46.9123C39.8747 47.1212 39.7702 47.2606 39.7006 47.3999C37.1584 52.6588 34.651 57.9177 32.6311 63.4204C32.5615 63.5945 32.3525 63.7687 32.1784 63.8035C31.4471 63.9776 31.0292 63.7338 30.7158 63.0373C27.9994 56.8729 25.2831 50.7433 22.4971 44.5789C20.0942 39.2851 17.6216 33.9914 15.1839 28.6976C14.9401 28.2101 14.6963 27.7225 14.4177 27.2697C13.6516 25.9463 12.5024 25.2846 11.0049 25.2149C10.6915 25.1801 10.3781 25.1801 10.0995 25.1453C9.71638 25.1104 9.57708 24.9015 9.61191 24.4139C9.64673 23.9611 9.85568 23.7173 10.2388 23.7522C11.388 23.787 12.5024 23.8915 13.6516 23.8915C16.5769 23.8567 19.537 23.8218 22.4623 23.7522C22.7409 23.7522 23.0891 23.7173 23.124 24.0656C23.1588 24.3791 23.0543 24.7273 22.9847 25.0408C22.9847 25.1104 22.8105 25.1104 22.7061 25.1453C22.0792 25.2149 21.4524 25.2846 20.7907 25.3891C20.5817 25.4239 20.3728 25.4935 20.1638 25.598C19.6763 25.807 19.5022 26.1204 19.6763 26.608C20.129 27.9314 20.5817 29.2897 21.1389 30.5783C23.9598 36.8472 26.8154 43.0813 29.671 49.3154C30.6461 51.4747 31.6909 53.5991 32.7008 55.7236C32.7704 55.8629 32.8401 56.0022 32.9446 56.2112C33.258 55.5494 33.5714 54.9226 33.85 54.3305C35.2778 51.3353 36.6708 48.3054 38.0987 45.3102C38.4817 44.544 38.4817 43.8127 38.1335 43.0465C36.636 39.7727 35.1734 36.4989 33.7107 33.26C32.9446 31.5535 32.1436 29.8818 31.3078 28.2101C31.0989 27.827 30.8899 27.4439 30.6461 27.0608C29.88 25.8766 28.7656 25.3194 27.4074 25.2497C27.1288 25.2497 26.885 25.2149 26.6064 25.1801C26.1885 25.1453 25.9448 24.8318 26.0144 24.3791C26.0492 23.9263 26.293 23.7522 26.7457 23.787C29.9845 23.8218 33.2232 23.8915 36.4619 23.9263C37.2977 23.9263 38.1335 23.8567 38.9693 23.787C39.3872 23.7522 39.5613 23.9263 39.5961 24.3791C39.6309 24.8666 39.4568 25.1453 39.0737 25.1801C38.3424 25.2497 37.6111 25.2846 36.8798 25.4239C35.9743 25.5632 35.6957 25.9811 35.9743 26.8518C36.2529 27.7225 36.6012 28.5583 36.9494 29.3594C38.2728 32.3893 39.6309 35.3845 40.9543 38.3796C40.9891 38.4841 41.0588 38.5886 41.1284 38.7627C41.1981 38.6931 41.2329 38.6582 41.2677 38.5886C42.9045 35.2103 44.4716 31.7624 45.7601 28.2101C45.9342 27.6877 46.0735 27.1652 46.1432 26.6428C46.2477 25.807 45.8646 25.3891 45.0288 25.3194C44.402 25.2497 43.7403 25.2149 43.1134 25.1453C42.7652 25.1104 42.5214 24.797 42.5562 24.3442C42.5911 23.9263 42.8 23.7522 43.2179 23.7522C45.9342 23.787 48.6854 23.8567 51.4018 23.8915C52.2376 23.8915 53.0733 23.8218 53.9091 23.7522C54.327 23.7173 54.4663 23.8567 54.5012 24.3094C54.536 24.8666 54.3967 25.1104 53.9788 25.1453C53.5957 25.1801 53.2126 25.2149 52.8644 25.2149C51.6455 25.2497 50.6704 25.807 49.9391 26.7821C49.4516 27.409 49.0337 28.1056 48.6506 28.8021C46.5959 32.5286 44.7502 36.3248 42.9741 40.1906C42.5214 41.131 42.6259 41.932 43.0438 42.8027C44.2975 45.5192 45.5163 48.2357 46.7352 50.9871C47.4317 52.5891 48.163 54.1564 48.8595 55.7584C48.9292 55.8977 48.9988 56.037 49.0685 56.2112C49.173 56.0022 49.2426 55.8977 49.2774 55.7584C52.7599 47.8875 55.9986 39.912 59.1329 31.9017C59.7249 30.4042 60.2473 28.8718 60.7348 27.3394C61.1179 26.1553 60.5955 25.4239 59.3418 25.2846C58.715 25.2149 58.0881 25.1801 57.4613 25.1104C57.0782 25.0756 56.8344 24.7622 56.8693 24.3094C56.8693 23.8915 57.113 23.6825 57.5309 23.7173C60.2124 23.7522 62.894 23.8218 65.5755 23.8567C66.4113 23.8567 67.2471 23.787 68.0829 23.7173C68.5356 23.6825 68.7445 23.8567 68.8142 24.2746C68.8838 24.7273 68.6401 25.0756 68.257 25.1104C67.8043 25.1801 67.3515 25.2149 66.8988 25.2846C65.7844 25.4587 64.9138 26.0856 64.3914 27.0259C63.6253 28.3494 62.894 29.7076 62.3019 31.1007C58.8543 39.0762 55.4414 47.0864 52.0634 55.0967C50.9142 57.8132 49.8695 60.5646 48.8247 63.3159C48.6506 63.7338 48.3372 63.7687 47.9889 63.7687C47.6407 63.7338 47.2576 63.8035 47.0835 63.3507C45.2377 58.3356 42.9741 53.4598 40.7802 48.584C40.5016 48.0964 40.2578 47.5392 39.9792 46.9123Z" fill="white" fill-opacity="0.8"/>
<path d="M37.82 11.5278C38.1682 11.5627 38.5165 11.5975 38.8299 11.6323C39.1085 12.4333 39.3523 12.6075 40.1881 12.6423C40.7105 12.6771 41.2328 12.6771 41.7552 12.712C43.3223 12.8861 44.1581 13.7568 44.0885 15.324C44.0188 16.5081 43.8099 17.6923 43.6009 18.8764C43.3571 20.0605 43.0437 21.2098 42.7651 22.3591C42.6955 22.6029 42.591 22.7422 42.3472 22.777C41.6507 22.8815 40.9891 22.986 40.2229 23.1253C40.397 22.777 40.5363 22.4636 40.6408 22.1501C41.1284 20.8267 41.6856 19.5033 42.0686 18.145C42.4517 16.7519 41.79 16.0205 40.3274 15.9509C39.7005 15.9161 39.0389 15.9161 38.412 15.8812C37.6807 15.8116 37.4717 15.533 37.4717 14.8364C37.4717 14.6971 37.4717 14.5578 37.5066 14.4185C37.5762 13.4433 37.6807 12.503 37.82 11.5278Z" fill="white" fill-opacity="0.8"/>
<path d="M48.7899 36.2552C48.7899 36.6731 48.7899 37.0214 48.7899 37.4045C49.1033 37.2651 49.3122 37.1258 49.556 37.0214C50.2177 36.7079 50.8794 36.4989 51.6107 36.6034C52.934 36.8124 53.8743 37.892 53.9788 39.2503C54.1529 42.0713 52.0982 43.9868 49.2774 43.6037C48.9292 43.5689 48.755 43.6385 48.755 43.9868C48.755 44.8923 48.755 45.763 48.7899 46.6685C48.7899 47.0168 48.9988 47.2257 49.3471 47.2606C49.5212 47.2954 49.6953 47.2954 49.8346 47.3302C49.9391 47.365 50.0087 47.4695 50.0784 47.5392C49.9739 47.6088 49.8694 47.7133 49.765 47.7133C48.9988 47.7133 48.2327 47.7133 47.4665 47.7133C47.2228 47.7133 46.979 47.7481 46.7004 47.7133C46.5959 47.7133 46.5263 47.6088 46.4566 47.5392C46.5263 47.4695 46.5959 47.365 46.6656 47.3302C47.4665 47.0864 47.5014 47.0864 47.5014 46.2157C47.5014 43.6385 47.5014 41.0265 47.5014 38.4493C47.5014 38.0662 47.4317 37.7527 47.0835 37.5089C47.0138 37.4741 46.979 37.1258 47.0486 37.091C47.6407 36.8472 48.163 36.6034 48.7899 36.2552ZM48.7899 40.1906C48.7899 40.7827 48.755 41.3748 48.7899 41.932C48.8247 42.1758 48.9292 42.4892 49.1381 42.6634C49.8346 43.3599 51.0883 43.3251 51.7848 42.6634C52.7251 41.723 52.9689 39.7031 52.2375 38.4841C51.6107 37.4741 50.4615 37.091 49.3819 37.6134C48.9988 37.7876 48.7899 38.0662 48.7899 38.4841C48.7899 39.0413 48.7899 39.5986 48.7899 40.1906Z" fill="white" fill-opacity="0.8"/>
<path d="M32.6311 40.4344C32.6311 40.6434 32.6311 40.7827 32.6311 40.8872C32.5963 42.8375 32.5963 44.7878 32.5963 46.7381C32.5963 47.3999 32.7356 47.5392 33.3973 47.6785C33.5018 47.7133 33.6062 47.8526 33.7107 47.9571C33.6062 48.0268 33.4669 48.1312 33.3625 48.1312C32.4222 48.1312 31.4471 48.1312 30.5068 48.1312C30.4023 48.1312 30.263 48.0268 30.1586 47.9571C30.263 47.8526 30.3327 47.7133 30.472 47.7133C31.1685 47.574 31.3078 47.4695 31.3078 46.773C31.3078 45.4495 31.3078 44.0913 31.3078 42.7678C31.3078 42.3499 31.1685 42.0365 30.8202 41.8275C30.5068 41.6185 30.5416 41.4792 30.8899 41.3051C31.4123 40.9917 32.0043 40.713 32.6311 40.4344Z" fill="white" fill-opacity="0.8"/>
<path d="M30.4023 12.7119C30.8202 12.9209 31.1336 13.1299 31.4471 13.2344C31.5864 13.304 31.8301 13.304 31.9694 13.2344C32.3177 13.095 32.5963 12.9209 33.0142 12.7119C32.9445 13.095 32.9097 13.4085 32.8401 13.7219C32.7704 14.0354 32.8052 14.2792 33.0838 14.4881C33.3276 14.6971 33.5366 14.9409 33.7803 15.2195C33.5017 15.2543 33.2231 15.3588 32.9445 15.3588C32.5266 15.3588 32.248 15.533 32.1087 15.9509C32.0043 16.2295 31.865 16.4733 31.6908 16.7867C31.5167 16.4385 31.3426 16.125 31.2033 15.8116C31.0988 15.4981 30.855 15.3936 30.5765 15.3936C30.263 15.3588 29.9496 15.2892 29.6362 15.2543C29.6014 15.2195 29.6014 15.1847 29.5665 15.1499C29.8103 14.9409 30.0541 14.6971 30.2979 14.4881C30.5764 14.2792 30.6113 14.0354 30.5416 13.7219C30.5068 13.4085 30.472 13.095 30.4023 12.7119Z" fill="white" fill-opacity="0.8"/>
<path d="M38.412 9.96059C38.621 9.43819 38.9344 9.02026 38.9344 8.5675C38.8996 8.14958 38.5165 7.76648 38.2379 7.31372C38.621 7.34855 38.9344 7.38338 39.2478 7.41821C39.5613 7.48786 39.805 7.41821 40.014 7.13959C40.1881 6.86097 40.4319 6.65201 40.7105 6.33856C40.815 6.75649 40.8498 7.13959 40.9891 7.48786C41.0587 7.662 41.198 7.83613 41.3373 7.90579C41.6508 8.07992 41.999 8.18441 42.4169 8.35854C42.0338 8.60233 41.6856 8.74164 41.3722 8.98543C41.2329 9.08991 41.1284 9.26405 41.0936 9.43819C41.0239 9.78646 41.0239 10.1696 40.9891 10.5875C40.6757 10.3089 40.3971 10.0999 40.1533 9.82129C39.9792 9.61232 39.7702 9.57749 39.5264 9.64715C39.1434 9.78646 38.7951 9.85611 38.412 9.96059Z" fill="white" fill-opacity="0.8"/>
<path d="M46.6307 15.115C46.9093 14.8712 47.1879 14.6623 47.4665 14.3836C47.571 14.2792 47.6407 14.0354 47.6058 13.8961C47.571 13.513 47.5014 13.1647 47.4317 12.7468C47.7451 12.9209 48.0586 13.0254 48.3023 13.1995C48.6158 13.4085 48.8595 13.4085 49.173 13.1995C49.4167 13.0254 49.7302 12.9209 50.0436 12.7468C49.9739 13.1647 49.9043 13.513 49.8695 13.8961C49.8695 14.0702 49.9391 14.2792 50.0436 14.4185C50.2873 14.6971 50.566 14.9061 50.8794 15.2195C50.4963 15.2892 50.1829 15.3588 49.9043 15.3588C49.5212 15.3588 49.3123 15.5329 49.2078 15.8812C49.1033 16.1598 48.9292 16.4385 48.7551 16.7867C48.5809 16.4036 48.4068 16.125 48.2675 15.8116C48.163 15.5329 47.9889 15.4285 47.7103 15.3936C47.3969 15.3588 47.0486 15.2892 46.7352 15.2543C46.6656 15.1847 46.6307 15.1498 46.6307 15.115Z" fill="white" fill-opacity="0.8"/>
<path d="M31.8301 38.6234C31.2381 38.6234 30.9247 38.31 30.9247 37.7179C30.9247 37.1607 31.3078 36.7776 31.865 36.7776C32.3873 36.7776 32.7704 37.1607 32.7704 37.7179C32.7356 38.2751 32.4222 38.6234 31.8301 38.6234Z" fill="white" fill-opacity="0.8"/>
</svg>
